<?xml version="1.0" encoding="UTF-8" standalone="no"?>
<!-- Created with Inkscape (http://www.inkscape.org/) -->

<svg
   width="64.659149mm"
   height="120.14043mm"
   viewBox="0 0 64.659149 120.14043"
   version="1.1"
   id="svg253"
   sodipodi:docname="zednot.svg"
   inkscape:version="1.2.1 (9c6d41e410, 2022-07-14)"
   xmlns:inkscape="http://www.inkscape.org/namespaces/inkscape"
   xmlns:sodipodi="http://sodipodi.sourceforge.net/DTD/sodipodi-0.dtd"
   xmlns="http://www.w3.org/2000/svg"
   xmlns:svg="http://www.w3.org/2000/svg">
  <sodipodi:namedview
     id="namedview255"
     pagecolor="#ffffff"
     bordercolor="#000000"
     borderopacity="0.25"
     inkscape:showpageshadow="2"
     inkscape:pageopacity="0.0"
     inkscape:pagecheckerboard="0"
     inkscape:deskcolor="#d1d1d1"
     inkscape:document-units="mm"
     showgrid="false"
     inkscape:zoom="0.69664703"
     inkscape:cx="98.328131"
     inkscape:cy="321.54017"
     inkscape:window-width="1920"
     inkscape:window-height="1011"
     inkscape:window-x="0"
     inkscape:window-y="0"
     inkscape:window-maximized="1"
     inkscape:current-layer="layer1" />
  <defs
     id="defs250" />
  <g
     inkscape:label="logo"
     id="layer1"
     inkscape:groupmode="layer"
     transform="translate(-70.412422,-63.490731)">
    <path
       style="display:inline;fill:#000000;stroke-width:0.0846667"
       d="m 108.93825,183.45341 c -0.13453,-0.15712 -0.20827,-0.17129 -0.62239,-0.11954 -0.34156,0.0427 -0.54191,0.0244 -0.73404,-0.067 -0.72399,-0.34449 -1.17312,-0.5026 -1.83059,-0.64442 -2.01169,-0.43396 -2.40858,-0.51367 -3.38667,-0.6802 -2.27014,-0.38653 -3.645868,-0.53884 -6.900328,-0.76394 -2.80872,-0.19427 -8.34819,-0.0504 -9.652,0.25064 -0.18627,0.043 -0.79587,0.11998 -1.35467,0.17103 -0.5588,0.0511 -1.26365,0.12874 -1.56633,0.17265 -0.30269,0.0439 -1.04564,0.11811 -1.651,0.16492 -1.22746,0.0949 -2.81056,0.28457 -3.50406,0.41985 -0.95359,0.18601 -3.92464,0.0448 -4.41728,-0.20996 -0.13232,-0.0684 -0.38536,-0.12493 -0.56229,-0.12557 -0.54893,-0.002 -0.70271,-0.076 -0.70271,-0.3384 0,-0.19608 -0.0668,-0.26828 -0.40216,-0.43463 -0.32816,-0.16277 -0.40742,-0.24623 -0.43068,-0.45348 -0.0157,-0.1397 -0.0824,-0.28447 -0.14817,-0.32171 -0.089,-0.0504 -0.11914,-0.25641 -0.11764,-0.80433 0.003,-0.98396 0.0793,-1.26236 0.5013,-1.82125 0.27155,-0.35966 0.45177,-0.50777 0.75238,-0.61831 0.44668,-0.16425 0.66049,-0.38185 0.73929,-0.7524 0.0297,-0.1397 0.14177,-0.5969 0.24903,-1.016 0.10726,-0.4191 0.24108,-0.97155 0.29739,-1.22767 0.0563,-0.25611 0.17754,-0.7037 0.26942,-0.99462 0.0919,-0.29093 0.19551,-0.7386 0.23028,-0.99483 l 0.0632,-0.46588 h -0.25077 -0.25076 l 0.0598,-0.52833 c 0.0329,-0.29058 0.0996,-0.57633 0.14831,-0.635 0.0487,-0.0587 0.24579,-0.11307 0.43799,-0.1209 l 0.34947,-0.0142 -0.3211,-0.0334 -0.32111,-0.0334 0.0248,-0.60851 c 0.0227,-0.55778 0.0406,-0.61076 0.21527,-0.63557 0.12,-0.017 0.1905,-0.0856 0.1905,-0.18538 0,-0.12123 0.073,-0.1645 0.31158,-0.18461 0.29782,-0.0251 0.31613,-0.045 0.41447,-0.44962 0.0566,-0.23283 0.16559,-0.63288 0.24222,-0.889 0.14402,-0.48133 0.25861,-0.87334 0.3836,-1.31233 0.0398,-0.1397 0.15193,-0.47213 0.24922,-0.73872 0.0973,-0.26659 0.17691,-0.57032 0.17691,-0.67494 0,-0.19149 0.29829,-1.27101 0.4165,-1.50734 0.0623,-0.12459 0.25128,-0.85459 0.4164,-1.60867 0.0459,-0.20955 0.13944,-0.55302 0.2079,-0.76327 l 0.12446,-0.38228 -0.34009,0.0324 -0.34008,0.0324 0.0388,-0.67003 c 0.0422,-0.72881 0.24582,-1.21261 0.51038,-1.21261 0.12372,0 0.15118,-0.0728 0.1516,-0.40217 2.6e-4,-0.22119 0.062,-0.51647 0.13726,-0.65617 0.0752,-0.1397 0.18042,-0.4445 0.23383,-0.67733 0.0934,-0.40735 0.10903,-0.42432 0.41308,-0.44961 0.25547,-0.0212 0.31784,0.003 0.32572,0.127 0.005,0.0843 0.0412,0.0199 0.0797,-0.14306 0.12126,-0.5139 0.44911,-1.39246 0.56308,-1.50888 0.0602,-0.0615 0.10895,-0.15678 0.10823,-0.21166 -7.9e-4,-0.0671 -0.0246,-0.0631 -0.0724,0.0123 -0.0427,0.0674 -0.18566,0.10116 -0.35853,0.0847 -0.28312,-0.027 -0.28738,-0.0335 -0.28234,-0.42636 0.003,-0.2194 0.0505,-0.4861 0.10606,-0.59267 0.0555,-0.10656 0.12941,-0.46046 0.16421,-0.78642 0.0535,-0.50112 0.0927,-0.60558 0.25378,-0.67624 0.13142,-0.0577 0.1905,-0.15613 0.1905,-0.3175 0,-0.2109 0.0292,-0.23393 0.29633,-0.23393 0.26147,0 0.29634,0.0255 0.29634,0.21666 0,0.12289 0.0366,0.19402 0.0847,0.16434 0.0466,-0.0288 0.0847,-0.20248 0.0847,-0.38599 0,-0.29948 -0.0217,-0.33368 -0.21167,-0.33368 -0.15522,0 -0.21166,-0.0451 -0.21166,-0.16933 0,-0.0931 -0.0381,-0.16933 -0.0847,-0.16933 -0.13657,0 -0.0989,-0.36636 0.127,-1.23588 0.11642,-0.44807 0.21167,-0.86637 0.21167,-0.92957 0,-0.0632 0.1905,-0.51382 0.42333,-1.00136 0.23283,-0.48755 0.42389,-0.95554 0.42456,-1.03999 0.002,-0.22524 0.20544,-0.76613 0.4881,-1.29654 0.16903,-0.31716 0.26352,-0.64001 0.29632,-1.01243 0.0313,-0.35559 0.0948,-0.58087 0.18159,-0.64433 0.0858,-0.0627 0.13411,-0.23038 0.13533,-0.46923 0.001,-0.23757 0.0922,-0.55496 0.2521,-0.87967 0.13761,-0.2794 0.25131,-0.60325 0.25266,-0.71967 0.001,-0.11642 0.0781,-0.32597 0.17067,-0.46567 0.0925,-0.1397 0.16847,-0.33382 0.16878,-0.43137 2.6e-4,-0.0976 0.0768,-0.24634 0.16989,-0.33063 0.11836,-0.10711 0.16933,-0.26077 0.16933,-0.51045 0,-0.22335 0.0791,-0.49877 0.21113,-0.73497 0.11638,-0.20822 0.26624,-0.69344 0.33393,-1.08119 0.0676,-0.3869 0.16304,-0.74368 0.21221,-0.79285 0.0492,-0.0492 0.0894,-0.18846 0.0894,-0.30954 0,-0.12107 0.0324,-0.25632 0.0721,-0.30056 0.0396,-0.0442 0.13829,-0.32809 0.21922,-0.63077 0.0809,-0.30268 0.25531,-0.87418 0.38749,-1.27 0.13219,-0.39582 0.51236,-1.57692 0.84482,-2.62467 0.33246,-1.04775 0.69323,-2.1717 0.80171,-2.49766 0.10848,-0.32597 0.37639,-1.16417 0.59535,-1.86267 0.59024,-1.88289 1.47951,-4.61456 1.6124,-4.953 0.1734,-0.44161 0.29192,-0.94107 0.29246,-1.23238 2.5e-4,-0.14239 0.0956,-0.38772 0.21214,-0.54562 0.11641,-0.15779 0.21166,-0.32321 0.21166,-0.36759 0,-0.0444 0.0813,-0.30367 0.18068,-0.57621 l 0.18068,-0.49553 h 0.45432 c 0.43144,0 0.45432,0.0109 0.45432,0.21755 0,0.17614 0.0356,0.21241 0.18703,0.1905 0.11832,-0.0171 0.2051,-0.10481 0.23621,-0.23872 0.0415,-0.17859 0.10487,-0.21573 0.40564,-0.2377 0.32212,-0.0235 0.35697,-0.007 0.36182,0.16934 l 0.005,0.19536 0.0766,-0.1905 c 0.0674,-0.16774 0.13698,-0.1905 0.58231,-0.1905 0.27815,0 0.52944,-0.0384 0.55843,-0.0853 0.0522,-0.0844 -2.05072,-0.034 -2.32871,0.0559 -0.29643,0.0958 -8.51967,0.19472 -8.97466,0.10792 -0.25612,-0.0489 -0.5895,-0.10972 -0.74084,-0.13526 -0.17034,-0.0287 -0.27516,-0.0958 -0.27516,-0.176 0,-0.16137 -0.24439,-0.35363 -0.45406,-0.35721 -0.14183,-0.002 -0.15435,-0.0624 -0.12423,-0.59536 0.025,-0.44315 0.006,-0.59267 -0.0751,-0.59267 -0.0703,0 -0.1086,-0.11957 -0.1086,-0.33866 0,-0.18627 0.0381,-0.33867 0.0847,-0.33867 0.0466,0 0.0847,-0.0906 0.0847,-0.2013 0,-0.24507 0.14259,-0.37332 0.49298,-0.4434 0.2187,-0.0437 0.27458,-0.10318 0.31885,-0.33917 l 0.0537,-0.28613 h 0.62558 c 0.56913,0 0.62558,0.0153 0.62558,0.16933 0,0.16065 0.0564,0.16934 1.10066,0.16934 1.04423,0 1.10067,0.009 1.10067,0.16933 0,0.11289 0.0564,0.16933 0.16933,0.16933 0.12418,0 0.16934,-0.0564 0.16934,-0.21166 v -0.21167 h 0.93133 c 0.89065,0 0.93133,0.008 0.93133,0.17839 0,0.12789 0.0379,0.16384 0.13393,0.127 0.0737,-0.0283 0.24511,-0.0514 0.381,-0.0514 0.19063,0 0.24707,-0.0387 0.24707,-0.16933 0,-0.14112 0.0565,-0.16934 0.33867,-0.16934 0.30313,0 0.33867,-0.0218 0.33867,-0.20783 0,-0.25155 0.0928,-0.27088 1.62983,-0.3394 l 1.0795,-0.0481 v 0.21301 c 0,0.1329 0.0478,0.21301 0.127,0.21301 0.0801,0 0.127,0.0807 0.127,0.21841 v 0.2184 l 0.5715,-0.0595 c 0.62178,-0.0647 0.79943,-0.12331 0.37394,-0.12331 -0.24996,0 -0.26811,-0.0201 -0.26811,-0.29633 0,-0.23989 0.0323,-0.29633 0.16934,-0.29633 0.0931,0 0.16933,-0.0514 0.16933,-0.11425 0,-0.0851 0.22656,-0.12828 0.889,-0.16933 2.9607,-0.18347 2.667,-0.18532 2.667,0.0168 0,0.12564 0.0525,0.18209 0.16933,0.18209 0.0941,0 0.16934,-0.0564 0.16934,-0.127 0,-0.0699 0.0572,-0.127 0.127,-0.127 0.0699,0 0.127,-0.0431 0.127,-0.0957 0,-0.0632 0.12822,-0.0812 0.37754,-0.0531 0.20764,0.0234 0.38877,0.009 0.4025,-0.0323 0.0296,-0.0886 4.303578,-0.26576 4.602508,-0.19073 0.12493,0.0314 0.20545,0.0148 0.20545,-0.0423 0,-0.16999 3.72518,-0.10015 6.65799,0.12481 0.74188,0.0569 0.77601,0.0519 0.83121,-0.12199 0.0516,-0.16247 0.1189,-0.18133 0.64717,-0.18133 0.446,0 0.60148,0.0309 0.63835,0.127 0.0319,0.083 0.16376,0.127 0.381,0.127 0.21724,0 0.34913,0.044 0.381,0.127 0.0283,0.0737 0.15495,0.127 0.30177,0.127 0.34572,0 0.72769,0.28796 0.76057,0.57339 0.0229,0.1983 0.0935,0.25268 0.49987,0.38478 0.39938,0.12983 0.49082,0.19858 0.58573,0.44048 0.07,0.17845 0.17899,0.29614 0.28873,0.31182 0.147,0.021 0.17628,0.085 0.17628,0.38513 0,0.19797 0.0286,0.3599 0.0635,0.35984 0.0349,-6e-5 0.0636,0.0666 0.0638,0.14806 0,0.17035 0.58818,0.4445 0.95308,0.4445 0.21504,0 0.23194,0.0253 0.23194,0.34659 0,0.27539 -0.0348,0.35569 -0.16933,0.39087 -0.0931,0.0243 -0.16933,0.0983 -0.16933,0.16423 0,0.20196 -0.56847,0.70697 -0.79581,0.70697 -0.13443,0 -0.22792,0.0603 -0.26253,0.16934 -0.0296,0.0931 -0.12738,0.16933 -0.21737,0.16933 -0.09,0 -0.16363,0.0381 -0.16363,0.0847 0,0.10472 -0.73429,0.11332 -0.79855,0.009 -0.0256,-0.0414 -0.17072,-0.095 -0.32249,-0.11913 -0.15178,-0.0241 -0.42836,-0.091 -0.61462,-0.14861 -0.18627,-0.0576 -0.55044,-0.0983 -0.80926,-0.0904 -0.38547,0.0118 -0.56926,-0.0367 -1.016,-0.26838 -1.06694,-0.55328 -1.99474,-0.67411 -5.11742,-0.66644 -2.42026,0.006 -5.013738,0.13384 -5.545658,0.27348 -0.16299,0.0428 -0.43921,0.078 -0.61384,0.0783 -0.17462,2.5e-4 -0.3175,0.0381 -0.3175,0.0842 0,0.0529 -0.58383,0.0763 -1.5875,0.0635 -0.87312,-0.0111 -1.92087,0.0118 -2.32833,0.0509 l -0.74083,0.0711 v 0.27908 c 0,0.15349 -0.13335,0.6905 -0.29634,1.19335 -0.16298,0.50284 -0.29633,1.00674 -0.29633,1.11977 0,0.11302 -0.13335,0.56153 -0.29633,0.99668 -0.16299,0.43516 -0.29634,0.83095 -0.29634,0.87955 0,0.0486 0.0952,0.0884 0.21167,0.0884 0.1905,0 0.21167,0.0339 0.21167,0.33866 0,0.33061 -0.007,0.33867 -0.29634,0.33867 -0.17776,0 -0.29848,-0.0423 -0.3017,-0.10583 -0.003,-0.0582 -0.0411,-0.0166 -0.0848,0.0925 -0.10008,0.24977 -0.0384,0.35202 0.21232,0.35202 0.13251,0 0.21347,0.0622 0.24785,0.1905 0.0787,0.29377 0.0628,0.68843 -0.0396,0.9822 -0.0797,0.2286 -0.13403,0.26663 -0.381,0.26663 h -0.28805 l -0.006,-0.48683 -0.006,-0.48684 -0.12601,0.33867 c -0.0693,0.18627 -0.1353,0.61489 -0.14665,0.9525 -0.0201,0.59744 -0.0152,0.61383 0.18284,0.61383 0.18966,0 0.20056,0.0244 0.16061,0.35984 -0.061,0.51224 -0.24421,1.16416 -0.32712,1.16416 -0.0387,0 -0.0704,0.0762 -0.0704,0.16934 0,0.0931 -0.0381,0.16933 -0.0847,0.16933 -0.0466,0 -0.0847,0.12112 -0.0847,0.26915 0,0.30846 -0.17047,0.83152 -0.271,0.83152 -0.0372,0 -0.0677,0.10985 -0.0677,0.24412 0,0.16823 -0.0498,0.25714 -0.1601,0.28599 -0.13652,0.0357 -0.1536,0.0995 -0.11599,0.43322 l 0.0441,0.39133 h -0.30734 c -0.28505,0 -0.30735,-0.0184 -0.30735,-0.254 0,-0.16384 -0.043,-0.254 -0.12112,-0.254 -0.082,0 -0.27343,0.46878 -0.59266,1.45126 -0.25936,0.79819 -0.47155,1.48775 -0.47155,1.53236 0,0.0446 -0.0538,0.20118 -0.1195,0.34792 -0.23546,0.52571 -0.69309,2.13348 -0.7685,2.69996 -0.0294,0.22063 -0.0994,0.44923 -0.15571,0.508 -0.16129,0.16847 -0.3784,0.74854 -0.43609,1.16517 -0.029,0.20955 -0.10342,0.45842 -0.16533,0.55303 -0.0619,0.0946 -0.17905,0.39943 -0.26029,0.67734 -0.0812,0.27792 -0.18134,0.5815 -0.22244,0.67463 -0.0411,0.0931 -0.15036,0.52721 -0.24279,0.96463 -0.0924,0.43741 -0.26359,1.00398 -0.38036,1.25906 -0.1329,0.29029 -0.21233,0.61604 -0.21233,0.87083 0,0.22388 -0.0476,0.4574 -0.10583,0.51894 -0.14435,0.15259 -0.3175,0.66707 -0.3175,0.94338 0,0.12475 -0.0335,0.22683 -0.0744,0.22683 -0.0409,0 -0.12158,0.12382 -0.17925,0.27516 -0.0577,0.15134 -0.15755,0.39523 -0.22194,0.54196 -0.0644,0.14675 -0.11407,0.3182 -0.11039,0.381 0.004,0.0628 0.045,0.009 0.0917,-0.11862 0.0701,-0.19197 0.1358,-0.23284 0.37432,-0.23284 0.28726,0 0.28927,0.003 0.28927,0.38878 0,0.24363 -0.17572,0.92325 -0.47067,1.82034 l -0.47067,1.43155 h -0.29133 c -0.277,0 -0.29133,-0.0147 -0.29133,-0.29905 0,-0.16448 0.0571,-0.43583 0.127,-0.603 0.14924,-0.35719 0.15068,-0.36795 0.0491,-0.36795 -0.13083,0 -0.37645,0.86672 -0.35391,1.24883 0.0126,0.21345 -0.0158,0.35984 -0.0698,0.35984 -0.0501,0 -0.0911,0.0572 -0.0911,0.127 0,0.0699 -0.0688,0.19583 -0.15296,0.27996 -0.0954,0.0954 -0.21108,0.46176 -0.30744,0.97366 -0.085,0.45139 -0.18759,0.82071 -0.22804,0.82071 -0.0405,0 -0.0736,0.15399 -0.0736,0.34221 0,0.20976 -0.0577,0.40418 -0.14918,0.50232 -0.082,0.0881 -0.19953,0.34365 -0.26108,0.56796 -0.0616,0.22431 -0.14694,0.48404 -0.18974,0.57718 -0.0968,0.21058 -0.71111,2.28684 -1.52815,5.16466 -0.0925,0.32597 -0.22067,0.8175 -0.28473,1.09231 -0.14688,0.63009 -0.45075,1.61224 -0.61714,1.99462 -0.0701,0.16112 -0.14624,0.45963 -0.16921,0.66337 -0.023,0.20373 -0.0936,0.39031 -0.15693,0.41463 -0.0633,0.0243 -0.11543,0.16394 -0.11573,0.3103 -2.7e-4,0.14635 -0.0763,0.38041 -0.16878,0.52011 -0.0925,0.1397 -0.16847,0.34106 -0.16877,0.44748 -2.7e-4,0.10641 -0.0548,0.27786 -0.12107,0.381 -0.14433,0.22458 -0.30283,1.04584 -0.30283,1.56907 0,0.48524 -0.16402,1.03145 -0.30973,1.03145 -0.0832,0 -0.1136,0.14531 -0.1136,0.54341 0,0.60005 -0.0525,0.81125 -0.20179,0.81125 -0.0647,0 -0.0876,0.11921 -0.0662,0.34413 0.0275,0.28834 0.005,0.35133 -0.13687,0.38851 -0.13906,0.0364 -0.18018,0.14235 -0.22782,0.5872 -0.0372,0.3475 -0.0963,0.54283 -0.16419,0.54283 -0.0768,0 -0.0954,0.12829 -0.0676,0.46435 0.031,0.37385 0.0118,0.47461 -0.0989,0.51706 -0.10186,0.0391 -0.13738,0.16428 -0.13738,0.48429 0,0.45181 -0.47305,2.28137 -0.6025,2.33019 -0.0412,0.0155 -0.0748,0.11224 -0.0748,0.21493 0,0.10269 -0.071,0.32603 -0.15784,0.4963 -0.13339,0.26164 -0.13887,0.31687 -0.0354,0.35656 0.23766,0.0912 3.09087,0.0454 4.91141,-0.0788 3.22504,-0.22005 5.1104,-0.29032 6.38995,-0.23811 l 1.24444,0.0508 0.034,0.22006 0.034,0.22008 0.0127,-0.23284 c 0.0116,-0.21308 0.0414,-0.23283 0.35136,-0.23283 0.31985,0 0.33866,0.0141 0.33866,0.254 0,0.28865 2.7e-4,0.28881 0.29235,0.15574 0.14164,-0.0645 0.21565,-0.16624 0.21565,-0.29633 0,-0.19743 0.004,-0.19808 1.09375,-0.19808 0.60155,0 1.154,0.0231 1.22766,0.0514 0.0857,0.0329 0.13393,0.15482 0.13393,0.33867 0,0.19891 0.0391,0.28727 0.127,0.28727 0.0887,0 0.127,-0.0894 0.127,-0.29633 0,-0.28852 0.009,-0.29633 0.33355,-0.29633 0.32433,0 0.33429,0.009 0.35983,0.3175 0.0247,0.29794 0.0419,0.31575 0.28028,0.28917 0.1397,-0.0156 0.53023,-0.0323 0.86784,-0.0371 l 0.61383,-0.009 v -0.23806 c 0,-0.2257 0.0198,-0.23806 0.381,-0.23806 0.37679,0 0.381,0.003 0.381,0.28764 0,0.28697 10e-4,0.28787 0.5361,0.381 0.29486,0.0514 0.76158,0.0936 1.03717,0.0939 0.27558,0 0.72966,0.0388 1.00906,0.0856 0.42928,0.0719 0.55705,0.062 0.82453,-0.064 0.17409,-0.082 0.31697,-0.19676 0.3175,-0.25496 5.3e-4,-0.0688 0.13413,-0.10584 0.381968,-0.10584 0.34996,0 0.381,0.0172 0.381,0.21167 0,0.11642 0.0408,0.21167 0.0907,0.21167 0.0499,0 0.14318,0.0525 0.2073,0.11658 0.0641,0.0641 0.37573,0.1621 0.69245,0.21771 1.26777,0.22262 2.48103,0.44145 3.28521,0.59254 1.53952,0.28925 1.397,0.28931 1.397,-8e-4 0,-0.14017 0.0613,-0.34834 0.13612,-0.4626 0.1457,-0.22238 0.1844,-0.45577 0.45591,-2.74964 0.36182,-3.05685 0.5188,-4.12257 0.69032,-4.68651 0.097,-0.31911 0.24223,-1.15731 0.32261,-1.86267 0.12762,-1.11982 0.13085,-1.31322 0.0255,-1.52484 -0.19566,-0.393 -0.23716,-1.09652 -0.0743,-1.25937 0.0754,-0.0755 0.13717,-0.2329 0.13717,-0.3499 0,-0.11699 0.0381,-0.23626 0.0847,-0.26504 0.0466,-0.0288 0.0847,-0.16973 0.0847,-0.31322 0,-0.14349 0.083,-0.42699 0.18434,-0.63001 0.17403,-0.34848 0.20436,-0.3691 0.54251,-0.3691 0.35612,0 0.35876,-0.002 0.46305,-0.40217 0.0866,-0.33222 0.1921,-0.47413 0.60634,-0.81595 l 0.50146,-0.41378 0.58927,0.0548 c 0.32411,0.0301 0.65485,0.0897 0.73499,0.13244 0.0801,0.0427 0.21238,0.0983 0.29387,0.12351 0.0925,0.0286 0.14817,0.13051 0.14817,0.27133 0,0.15697 0.12121,0.34424 0.39905,0.61649 0.47107,0.46159 0.61695,0.7053 0.61695,1.03071 0,0.13163 0.0336,0.26012 0.0748,0.28554 0.0411,0.0254 0.10061,0.25302 0.13219,0.50581 0.0518,0.41429 0.0852,0.47279 0.33936,0.59339 0.15506,0.0736 0.30512,0.19422 0.33346,0.2681 0.10128,0.26392 0.0489,0.80978 -0.10733,1.11868 -0.22804,0.45086 -0.43379,1.44233 -0.43379,2.09033 0,0.40915 -0.0327,0.57 -0.1229,0.60461 -0.20146,0.0773 -0.28248,0.51432 -0.33557,1.81019 -0.0277,0.67521 -0.1127,1.7334 -0.18898,2.35154 -0.11317,0.91706 -0.12074,1.23256 -0.0411,1.71453 0.0536,0.32487 0.12156,0.98323 0.15092,1.46303 0.046,0.75243 0.0314,0.91829 -0.10664,1.20646 -0.18529,0.38687 -0.19475,0.98848 -0.0423,2.68973 0.10589,1.18165 0.0461,1.50749 -0.28772,1.5671 -0.0928,0.0166 -0.30204,0.15783 -0.46502,0.3139 -0.37132,0.35559 -0.96296,0.62742 -1.37084,0.62984 -0.17187,0.001 -0.33605,0.04 -0.36483,0.0865 -0.0288,0.0466 -0.30831,0.0847 -0.62118,0.0847 -0.47355,0 -0.59442,-0.0299 -0.72146,-0.17823 z m -33.645858,-6.99557 c 0.1027,-0.0295 0.14605,-0.124 0.14126,-0.30789 l -0.007,-0.2653 -0.12034,0.27517 c -0.10279,0.23505 -0.1635,0.27517 -0.41643,0.27517 -0.2861,0 -0.29601,-0.0107 -0.29386,-0.3175 0.002,-0.30102 0.18087,-1.08992 0.58907,-2.59964 0.10016,-0.37041 0.19926,-0.70124 0.22024,-0.73518 0.021,-0.0339 0.0734,-0.22617 0.11661,-0.42719 0.0431,-0.20102 0.17489,-0.70839 0.29274,-1.12749 0.11784,-0.4191 0.36474,-1.31445 0.54866,-1.98967 0.18392,-0.67522 0.39623,-1.43722 0.4718,-1.69333 0.0756,-0.25612 0.19347,-0.67522 0.26201,-0.93134 0.0685,-0.25611 0.18068,-0.65616 0.24921,-0.889 0.12122,-0.41181 0.74352,-2.61798 1.02693,-3.64066 0.20353,-0.73444 0.44503,-1.53697 0.63068,-2.09584 0.089,-0.26795 0.15986,-0.668 0.15746,-0.889 l -0.004,-0.40183 -0.11241,0.29633 c -0.23476,0.61882 -0.97953,2.96824 -0.97953,3.08999 0,0.0701 -0.0381,0.12735 -0.0847,0.12735 -0.0466,0 -0.0847,0.13081 -0.0847,0.29071 0,0.25254 -0.0299,0.29422 -0.22794,0.3175 -0.18244,0.0214 -0.24176,0.0859 -0.29714,0.32312 -0.0381,0.16298 -0.10561,0.42968 -0.1501,0.59267 -0.0445,0.16298 -0.10384,0.38205 -0.13189,0.48683 -0.037,0.13822 -0.0146,0.1905 0.0817,0.1905 0.0902,0 0.1327,0.0792 0.1327,0.24707 0,0.37569 -0.0826,0.51493 -0.30539,0.51493 -0.11143,0 -0.20261,0.0381 -0.20261,0.0847 0,0.0466 0.0381,0.0847 0.0847,0.0847 0.0466,0 0.0847,0.17145 0.0847,0.381 0,0.34367 -0.0195,0.381 -0.19934,0.381 -0.1632,0 -0.22277,0.0729 -0.32867,0.40217 -0.10871,0.33798 -0.11067,0.40653 -0.0123,0.42954 0.13493,0.0316 0.16559,0.60762 0.0323,0.60762 -0.0466,0 -0.0847,0.1143 -0.0847,0.254 0,0.21147 -0.0339,0.254 -0.20261,0.254 -0.11144,0 -0.22574,0.0603 -0.254,0.13393 -0.0792,0.20642 -0.0609,0.45874 0.0333,0.45874 0.12469,0 0.10297,0.63897 -0.0328,0.96384 -0.0646,0.15459 -0.14414,0.43912 -0.17678,0.63229 -0.0326,0.19316 -0.0902,0.3512 -0.12803,0.3512 -0.0378,0 -0.0875,0.16193 -0.11039,0.35984 -0.0431,0.37223 -0.25234,1.24801 -0.5613,2.3495 -0.098,0.34925 -0.26001,0.94932 -0.3601,1.3335 -0.16085,0.61736 -0.20441,0.6985 -0.37498,0.6985 -0.10614,0 -0.21654,0.0381 -0.24531,0.0847 -0.0288,0.0466 0.0124,0.0847 0.0915,0.0847 0.12373,0 0.13712,0.0651 0.0958,0.46559 -0.0442,0.4286 -0.0334,0.46875 0.13632,0.50547 0.39063,0.0845 0.61245,0.10433 0.73471,0.0658 0.0699,-0.022 0.19367,-0.0592 0.27517,-0.0827 z m 0.88158,-3.43069 c -0.0235,-0.0582 -0.0427,-0.0106 -0.0427,0.10584 0,0.11641 0.0192,0.16404 0.0427,0.10583 0.0235,-0.0582 0.0235,-0.15346 0,-0.21167 z m 0.19533,-0.61383 c 0,-0.0466 -0.0369,-0.0275 -0.0821,0.0423 -0.0451,0.0699 -0.0821,0.1651 -0.0821,0.21166 0,0.0466 0.0369,0.0275 0.0821,-0.0423 0.0451,-0.0699 0.0821,-0.1651 0.0821,-0.21166 z m 0.0604,-0.31221 c -0.027,-0.0675 -0.0471,-0.0475 -0.0511,0.0512 -0.004,0.0892 0.0163,0.13926 0.0445,0.11113 0.0281,-0.0281 0.0311,-0.10117 0.007,-0.16229 z m 0.16757,-0.59796 c -0.0235,-0.0582 -0.0427,-0.0106 -0.0427,0.10584 0,0.11641 0.0192,0.16404 0.0427,0.10583 0.0235,-0.0582 0.0235,-0.15346 0,-0.21167 z m -1.90068,-1.8415 c 0.0205,-0.1397 0.006,-0.254 -0.0327,-0.254 -0.0385,0 -0.07,0.1143 -0.07,0.254 0,0.1397 0.0147,0.254 0.0327,0.254 0.018,0 0.0495,-0.1143 0.07,-0.254 z m 2.66268,-1.03716 c -0.0235,-0.0582 -0.0427,-0.0106 -0.0427,0.10583 0,0.11642 0.0192,0.16404 0.0427,0.10583 0.0235,-0.0582 0.0235,-0.15346 0,-0.21166 z m 0.16933,-0.67734 c -0.0235,-0.0582 -0.0427,-0.0106 -0.0427,0.10584 0,0.11641 0.0192,0.16404 0.0427,0.10583 0.0235,-0.0582 0.0235,-0.15346 0,-0.21167 z m 0.44934,-1.37583 c 0,-0.0466 -0.0369,-0.0275 -0.0821,0.0423 -0.0451,0.0699 -0.0821,0.1651 -0.0821,0.21166 0,0.0466 0.0369,0.0275 0.0821,-0.0423 0.0451,-0.0699 0.0821,-0.1651 0.0821,-0.21166 z m 0.16002,-0.59267 v -0.16933 l -0.0728,0.16933 c -0.04,0.0931 -0.0728,0.24554 -0.0728,0.33867 v 0.16933 l 0.0728,-0.16933 c 0.04,-0.0931 0.0728,-0.24553 0.0728,-0.33867 z m 0.22085,-0.67733 c 0.0788,-0.44384 -0.007,-0.35403 -0.11294,0.11848 -0.0454,0.20221 -0.0521,0.33447 -0.0149,0.29392 0.0372,-0.0405 0.0948,-0.22613 0.12785,-0.4124 z m -0.55143,-6.5405 c 0.002,-0.0582 -0.0533,-0.10583 -0.12318,-0.10583 -0.094,0 -0.12522,0.0934 -0.12013,0.35983 l 0.007,0.35983 0.11631,-0.254 c 0.064,-0.1397 0.11802,-0.30162 0.12012,-0.35983 z m 1.64303,-0.34076 c 0.0223,-0.0361 0.0145,-0.1928 -0.0173,-0.34828 l -0.0578,-0.28269 -0.093,0.34828 c -0.074,0.2772 -0.0705,0.34828 0.0173,0.34828 0.0606,0 0.12848,-0.0295 0.15078,-0.0656 z m 0.11195,-1.05095 c -0.027,-0.0675 -0.0471,-0.0475 -0.0512,0.0512 -0.004,0.0892 0.0163,0.13926 0.0445,0.11113 0.0281,-0.0281 0.0311,-0.10116 0.007,-0.16229 z m 0.52725,-1.06362 c 0.16383,-0.59887 0.35936,-1.95011 0.20889,-1.44354 -0.0235,0.0792 -0.18819,0.60305 -0.36593,1.16416 -0.27567,0.87028 -0.30277,1.02021 -0.1844,1.02021 0.10256,0 0.19165,-0.19329 0.34144,-0.74083 z m 0.68714,-2.29103 c 0.0789,-0.2421 0.12339,-0.54479 0.0988,-0.67265 -0.0376,-0.19581 -0.0756,-0.13232 -0.2406,0.40251 -0.22638,0.73379 -0.23365,0.78763 -0.10041,0.74321 0.0543,-0.0181 0.16327,-0.23098 0.24219,-0.47307 z m -1.10289,-1.45547 c 0,-0.0466 -0.0168,-0.0847 -0.0373,-0.0847 -0.0205,0 -0.0609,0.0381 -0.0897,0.0847 -0.0288,0.0466 -0.012,0.0847 0.0373,0.0847 0.0493,0 0.0897,-0.0381 0.0897,-0.0847 z m 1.75117,-1.28588 c -0.027,-0.0675 -0.0471,-0.0475 -0.0512,0.0512 -0.004,0.0892 0.0163,0.13926 0.0445,0.11113 0.0281,-0.0281 0.0311,-0.10117 0.007,-0.16229 z m 0.254,-0.84667 c -0.027,-0.0675 -0.0471,-0.0475 -0.0512,0.0512 -0.004,0.0893 0.0163,0.13926 0.0445,0.11113 0.0281,-0.0281 0.0311,-0.10116 0.007,-0.16228 z m -0.98917,-1.04245 c 0,-0.11642 -0.0328,-0.21167 -0.0729,-0.21167 -0.0401,0 -0.0547,0.0952 -0.0325,0.21167 0.0223,0.11641 0.0551,0.21166 0.0729,0.21166 0.0179,0 0.0325,-0.0952 0.0325,-0.21166 z m 1.46608,0.0635 c 0.0202,-0.0349 0.006,-0.1397 -0.0314,-0.23284 -0.0375,-0.0931 -0.0708,-0.12482 -0.0741,-0.0704 -0.003,0.0544 -0.0291,0.15918 -0.0573,0.23284 -0.0507,0.13212 0.0915,0.19364 0.1628,0.0704 z m 2.32757,-1.42041 c -0.0261,-0.0261 -0.0734,0.0209 -0.1052,0.10442 -0.0459,0.12067 -0.0362,0.13039 0.0474,0.0474 0.0579,-0.0574 0.0839,-0.12575 0.0578,-0.15182 z m -1.87315,-0.4793 c -0.027,-0.0675 -0.0471,-0.0475 -0.0512,0.0512 -0.004,0.0892 0.0163,0.13926 0.0445,0.11112 0.0281,-0.0281 0.0311,-0.10116 0.007,-0.16228 z m 0.16758,-0.59796 c -0.0235,-0.0582 -0.0427,-0.0106 -0.0427,0.10583 0,0.11642 0.0192,0.16404 0.0427,0.10584 0.0235,-0.0582 0.0235,-0.15346 0,-0.21167 z m 2.88435,-11.71399 c -0.0281,-0.0281 -0.10116,-0.0311 -0.16227,-0.007 -0.0675,0.027 -0.0475,0.0471 0.0512,0.0512 0.0892,0.004 0.13926,-0.0164 0.11112,-0.0445 z m 4.7128,-5.16257 c 0.0282,-0.0736 0.026,-0.2348 -0.005,-0.35834 l -0.0564,-0.22461 -0.10644,0.29484 c -0.0585,0.16216 -0.10934,0.32341 -0.11288,0.35834 -0.0124,0.12265 0.23001,0.062 0.28076,-0.0702 z m -0.012,-9.15101 c -0.0582,-0.0235 -0.15346,-0.0235 -0.21167,0 -0.0582,0.0235 -0.0106,0.0427 0.10584,0.0427 0.11641,0 0.16404,-0.0192 0.10583,-0.0427 z m -1.18533,-4.47959 c 0.40745,-0.0284 0.74087,-0.0767 0.74092,-0.10744 4e-5,-0.0307 -0.39048,-0.0314 -0.86784,-0.001 -0.47736,0.03 -0.97269,0.0586 -1.10075,0.0635 -0.12806,0.005 -0.23283,0.0424 -0.23283,0.0832 0,0.0409 0.16192,0.0606 0.35983,0.0439 0.19791,-0.0167 0.69321,-0.0535 1.10067,-0.0819 z m 3.70416,-0.248 c 0,-0.0699 -0.0381,-0.127 -0.0847,-0.127 -0.0466,0 -0.0847,0.0571 -0.0847,0.127 0,0.0699 0.0381,0.127 0.0847,0.127 0.0466,0 0.0847,-0.0572 0.0847,-0.127 z m 2.11667,-0.16934 c 0,-0.0699 -0.0572,-0.127 -0.127,-0.127 -0.0699,0 -0.127,0.0572 -0.127,0.127 0,0.0698 0.0572,0.127 0.127,0.127 0.0699,0 0.127,-0.0572 0.127,-0.127 z m 33.274008,66.34032 c 0,-0.14885 -0.0426,-0.1603 -0.42718,-0.11475 -0.40899,0.0484 -0.48626,0.0302 -1.09365,-0.25869 -0.13207,-0.0628 -0.22892,-0.19901 -0.26422,-0.37157 -0.0306,-0.14984 -0.13649,-0.33968 -0.23522,-0.42187 -0.15601,-0.12988 -0.18681,-0.27401 -0.23532,-1.10149 l -0.0558,-0.95206 0.41892,-0.44494 c 0.27202,-0.28892 0.48516,-0.6231 0.60779,-0.95297 0.18747,-0.50432 0.56442,-0.88898 0.87115,-0.88898 0.0695,0 0.25557,-0.13335 0.41354,-0.29633 0.21713,-0.22403 0.35732,-0.29634 0.57454,-0.29634 0.29585,0 0.59666,0.24915 0.61334,0.508 0.005,0.0752 0.0394,0.0492 0.0848,-0.0635 0.0674,-0.16765 0.13703,-0.1905 0.58057,-0.1905 0.49997,0 0.50447,0.002 0.56346,0.27517 0.0986,0.45627 0.52069,1.18692 0.96835,1.6762 0.2323,0.25389 0.42295,0.50661 0.42367,0.56157 8e-4,0.055 0.087,0.11213 0.1918,0.127 0.15934,0.0226 0.19484,0.0875 0.21703,0.3969 0.0197,0.27533 -0.0159,0.41597 -0.13925,0.55034 -0.0912,0.0993 -0.23646,0.314 -0.32286,0.47718 -0.43069,0.81346 -0.7285,1.00326 -1.79415,1.14344 -0.37044,0.0487 -0.52715,0.12638 -0.87066,0.43148 -0.34533,0.30669 -0.47792,0.37206 -0.75476,0.37206 -0.27669,0 -0.33584,-0.0291 -0.33584,-0.16535 z m -55.202678,-9.78299 c 0,-0.28222 0.0141,-0.29633 0.29634,-0.29633 0.28222,0 0.29633,0.0141 0.29633,0.29633 0,0.28222 -0.0141,0.29634 -0.29633,0.29634 -0.28223,0 -0.29634,-0.0141 -0.29634,-0.29634 z m 56.176338,-2.07433 c -0.0288,-0.0466 -0.17494,-0.0847 -0.32482,-0.0847 -0.14988,0 -0.35988,-0.0612 -0.46669,-0.13602 -0.12692,-0.0889 -0.36117,-0.13366 -0.67618,-0.12922 -0.43658,0.006 -0.51226,-0.0209 -0.80303,-0.28733 -0.17657,-0.16176 -0.37607,-0.2941 -0.44333,-0.2941 -0.0677,0 -0.12228,-0.0792 -0.12228,-0.17726 0,-0.1038 -0.0676,-0.19493 -0.16312,-0.21992 -0.12709,-0.0332 -0.18645,-0.17324 -0.26878,-0.63391 -0.10461,-0.58536 -0.10012,-0.81877 0.14464,-7.52024 0.0435,-1.18994 0.091,-1.88333 0.20043,-2.921 0.054,-0.51223 0.13084,-1.36948 0.17076,-1.905 0.17875,-2.39754 0.24654,-3.17019 0.30702,-3.49952 0.0356,-0.19405 0.0711,-0.60046 0.0789,-0.90315 0.008,-0.30268 0.0595,-0.98848 0.11498,-1.524 0.0555,-0.53551 0.1164,-1.52611 0.13536,-2.20133 0.044,-1.56609 0.0741,-1.99768 0.2335,-3.34433 0.0716,-0.60537 0.11057,-1.29606 0.0865,-1.53487 -0.0434,-0.43051 0.068,-1.89685 0.23073,-3.03713 0.17563,-1.23089 0.4483,-6.27653 0.46898,-8.67834 0.0359,-4.17545 0.12769,-6.33297 0.46083,-10.83733 0.34984,-4.73029 0.40995,-6.98725 0.25482,-9.56733 -0.0434,-0.72178 -0.1368,-2.51248 -0.20758,-3.97933 -0.0708,-1.46685 -0.14778,-2.87655 -0.17111,-3.13267 -0.0233,-0.25612 -0.0817,-4.161374 -0.12978,-8.678339 -0.11465,-10.780567 -0.2437,-14.544331 -0.57626,-16.806333 -0.11491,-0.781593 -0.14533,-1.675159 -0.1542,-4.529667 -0.006,-1.955801 -0.0407,-4.57206 -0.0769,-5.81391 l -0.0658,-2.257909 0.22502,-0.26742 c 0.12376,-0.147081 0.22502,-0.322843 0.22502,-0.390581 0,-0.06774 0.058,-0.145436 0.129,-0.172662 0.0709,-0.02722 0.25978,-0.246545 0.41964,-0.487378 0.28399,-0.427852 0.307,-0.442169 1.00477,-0.625177 0.87735,-0.230108 1.22674,-0.240632 1.29914,-0.03913 0.11718,0.326158 0.31541,0.424387 0.7686,0.380842 0.47044,-0.0452 0.47795,-0.03735 0.54614,0.571658 0.0186,0.165745 0.0788,0.217796 0.2777,0.239917 0.27661,0.03077 0.55034,0.230869 0.55034,0.402317 0,0.05939 0.0854,0.120164 0.1897,0.135044 0.22968,0.03276 0.37519,0.315995 0.50018,0.973627 0.11139,0.586048 0.0387,5.66685 -0.10463,7.308429 -0.0939,1.075409 -0.0619,3.116932 0.0954,6.096 0.22916,4.339761 0.33521,7.171822 0.33528,8.953499 l 7e-5,1.9685 h -0.21166 c -0.20315,0 -0.21169,0.02127 -0.21211,0.529167 -10e-4,1.157587 -0.10602,2.180167 -0.22399,2.180167 -0.0734,0 -0.11424,0.102505 -0.11424,0.286459 0,0.215252 0.0421,0.297463 0.16934,0.33074 0.14252,0.03727 0.16947,0.115916 0.17026,0.496707 7.9e-4,0.248835 0.0245,0.595302 0.0534,0.769927 0.0434,0.262779 0.0871,0.3175 0.25307,0.3175 0.1919,0 0.20059,0.02567 0.20059,0.592667 0,0.53622 -0.0161,0.592666 -0.16933,0.592666 -0.15605,0 -0.16934,0.05644 -0.16934,0.719667 0,0.7112 0.002,0.719667 0.21167,0.719667 h 0.21167 v 1.566339 c 0,0.98778 -0.0313,1.56633 -0.0847,1.56633 -0.0466,0 -0.0847,0.0571 -0.0847,0.127 0,0.0699 0.0525,0.127 0.11664,0.127 0.0941,0 0.12812,0.3881 0.17616,2.01084 0.0327,1.10595 0.11328,2.84903 0.17896,3.8735 0.26771,4.1753 0.30152,5.13595 0.27529,7.82124 l -0.0274,2.80453 0.20338,-6e-5 0.20339,-5e-5 -0.0567,1.16417 c -0.0312,0.64029 -0.0807,1.51659 -0.11004,1.94733 l -0.0533,0.78317 -0.26267,0.0127 c -0.25583,0.0124 -0.25661,0.0136 -0.0298,0.048 0.22622,0.0343 0.23283,0.0508 0.23283,0.57998 0,0.52346 -0.008,0.54471 -0.21005,0.54471 -0.26003,0 -0.27463,0.0622 -0.33762,1.43933 -0.0266,0.58208 -0.0716,1.42981 -0.0999,1.88383 -0.05,0.80185 -0.0464,0.8255 0.12871,0.8255 0.17497,0 0.18024,0.0334 0.18024,1.143 v 1.143 h -0.21167 -0.21167 v 1.43934 c 0,1.38289 0.007,1.43934 0.16934,1.43934 0.1532,0 0.16933,0.0564 0.16933,0.59266 0,0.57574 -0.006,0.59267 -0.21167,0.59267 -0.15521,0 -0.21166,0.0452 -0.21166,0.16933 0,0.11289 0.0565,0.16934 0.16933,0.16934 0.15679,0 0.16933,0.0564 0.16933,0.762 0,0.75635 -0.002,0.762 -0.21166,0.762 h -0.21167 l 7.9e-4,0.91016 c 8e-4,0.90812 -0.11999,2.6825 -0.42716,6.2865 -0.23891,2.80322 -0.67748,9.7222 -0.67486,10.64684 8e-4,0.18779 0.0411,0.27516 0.12778,0.27516 0.0917,0 0.127,0.0941 0.127,0.33867 0,0.27251 -0.0305,0.33867 -0.15591,0.33867 -0.13845,0 -0.16739,0.1257 -0.25833,1.12183 -0.15212,1.66639 -0.35105,3.21602 -0.43749,3.40783 -0.14448,0.3206 -0.39862,2.67279 -0.42539,3.937 -0.0184,0.87092 0.0304,1.16664 0.21262,1.28832 0.0583,0.0389 0.0919,0.55575 0.0939,1.4415 0.002,0.95076 0.0381,1.46563 0.11575,1.653 0.12032,0.2905 0.0921,1.00293 -0.069,1.74001 -0.12076,0.55264 -0.13386,0.56584 -0.56117,0.56584 -0.32453,0 -0.38118,0.0271 -0.42537,0.20311 -0.0413,0.16451 -0.12387,0.21403 -0.43461,0.26063 -0.2781,0.0417 -0.39533,0.10229 -0.42617,0.22023 -0.0353,0.13478 -0.11989,0.1627 -0.49334,0.1627 -0.24794,0 -0.47435,-0.0381 -0.50313,-0.0847 z m -0.82732,-6.6675 c -0.0183,-0.17463 -0.0332,-0.0318 -0.0332,0.3175 0,0.34925 0.0149,0.49212 0.0332,0.3175 0.0183,-0.17463 0.0183,-0.46038 0,-0.635 z m -0.003,-1.27 c -0.0213,-0.0815 -0.0387,-0.0148 -0.0387,0.14817 0,0.16298 0.0174,0.22965 0.0387,0.14816 0.0213,-0.0815 0.0213,-0.21484 0,-0.29633 z m 1.18564,-2.19973 c -0.0215,-0.0824 -0.0404,-0.0355 -0.0422,0.10423 -0.002,0.1397 0.0159,0.2071 0.039,0.14977 0.0232,-0.0573 0.0246,-0.17161 0.003,-0.254 z m -0.003,-0.97527 c -0.0235,-0.0582 -0.0427,-0.0106 -0.0427,0.10583 0,0.11642 0.0192,0.16404 0.0427,0.10584 0.0235,-0.0582 0.0235,-0.15346 0,-0.21167 z m 0.34234,-5.08 c -0.0202,-0.10478 -0.0367,-0.019 -0.0367,0.1905 0,0.20955 0.0165,0.29527 0.0367,0.1905 0.0202,-0.10478 0.0202,-0.27623 0,-0.381 z m 0.0836,-0.80273 c -0.0215,-0.0824 -0.0404,-0.0355 -0.0422,0.10423 -0.002,0.1397 0.0159,0.2071 0.039,0.14977 0.0232,-0.0573 0.0246,-0.17161 0.003,-0.254 z m 0.51057,-19.26327 c -0.0188,-0.15134 -0.0341,-0.0275 -0.0341,0.27517 0,0.30268 0.0154,0.4265 0.0341,0.27516 0.0188,-0.15134 0.0188,-0.39899 0,-0.55033 z m 0.0851,-1.31233 c -0.0183,-0.17463 -0.0332,-0.0317 -0.0332,0.3175 0,0.34925 0.0149,0.49212 0.0332,0.3175 0.0183,-0.17463 0.0183,-0.46038 0,-0.635 z m 0.0842,-1.48167 c -0.0188,-0.15134 -0.0341,-0.0275 -0.0341,0.27517 0,0.30268 0.0154,0.4265 0.0341,0.27516 0.0188,-0.15134 0.0188,-0.39899 0,-0.55033 z M 82.213832,115.94066 v -0.29634 h 0.55034 0.55033 v 0.29634 0.29633 h -0.55033 -0.55034 z m 8.80534,-0.78606 c 0,-0.26762 0.15576,-0.8637 0.45907,-1.75683 0.87856,-2.58693 1.73427,-5.08486 2.15984,-6.30478 0.23554,-0.67522 0.42845,-1.29586 0.42867,-1.37921 2.6e-4,-0.0833 0.0741,-0.29601 0.16421,-0.47259 0.21604,-0.42349 1.05517,-2.78555 1.70325,-4.79453 0.28543,-0.884775 0.59591,-1.818225 0.68997,-2.074342 0.0941,-0.256117 0.59917,-1.724163 1.12245,-3.26232 0.52328,-1.538158 0.99599,-2.879916 1.05045,-2.981683 0.0545,-0.101766 0.17099,-0.40537 0.25896,-0.674679 0.18821,-0.576257 1.269308,-3.675277 1.810058,-5.188651 0.20799,-0.582084 0.59445,-1.667933 0.85881,-2.413 0.58766,-1.65631 0.84394,-2.364923 1.40854,-3.894667 0.24062,-0.651933 0.54559,-1.509183 0.67771,-1.905 0.13212,-0.395816 0.35934,-1.043516 0.50495,-1.439333 0.1456,-0.395817 0.47518,-1.367367 0.73239,-2.159 0.2572,-0.791633 0.9069,-2.688077 1.44378,-4.214318 0.53688,-1.526242 0.95771,-2.793427 0.93517,-2.815966 -0.10899,-0.108991 -3.00698,-0.223285 -4.55495,-0.179644 -2.63849,0.07439 -8.817388,0.558956 -10.371668,0.81338 -0.46419,0.07599 -2.42855,0.309407 -5.37633,0.638862 -1.67735,0.187466 -5.35042,0.550686 -5.56883,0.550686 -0.13186,0 -0.1885,0.05072 -0.1885,0.168799 0,0.163856 -0.0416,0.167364 -1.41817,0.119767 -0.77999,-0.02697 -1.90757,-0.102929 -2.50572,-0.1688 -1.51307,-0.166626 -2.05403,-0.159654 -2.1258,0.0274 -0.0931,0.242709 -0.20626,1.823605 -0.25507,3.564722 -0.0252,0.900655 -0.0817,2.062705 -0.12557,2.582333 -0.1051,1.246664 -0.1191,2.942408 -0.0409,4.955466 l 0.0637,1.640023 -0.35224,-0.03359 c -0.24679,-0.02355 -0.35224,-0.0013 -0.35224,0.07448 0,0.06707 -0.11244,0.108072 -0.29634,0.108072 -0.20696,0 -0.29633,-0.0383 -0.29633,-0.127 0,-0.07056 -0.0753,-0.127 -0.16933,-0.127 -0.13171,0 -0.16934,0.05644 -0.16934,0.254 0,0.221757 -0.0301,0.254 -0.23712,0.254 -0.32151,0 -0.68361,-0.178054 -0.74434,-0.366017 -0.0456,-0.141044 -0.0626,-0.14287 -0.19704,-0.02117 -0.2586,0.234029 -1.1075,0.12904 -1.1075,-0.136972 0,-0.05217 -0.1034,-0.230428 -0.22978,-0.396123 -0.30885,-0.404921 -0.40801,-1.131475 -0.39441,-2.889721 0.0108,-1.392473 0.22597,-4.093843 0.37095,-4.656667 0.042,-0.162983 0.11605,-0.791633 0.16459,-1.397 0.0485,-0.605367 0.12607,-1.329267 0.17228,-1.608667 0.17002,-1.027902 0.35029,-3.335509 0.35222,-4.5085 0.001,-0.671092 0.0363,-1.2065 0.0794,-1.2065 0.0426,0 0.0774,-0.09775 0.0774,-0.217233 0,-0.335642 0.13983,-0.521899 0.47482,-0.632454 0.16873,-0.05569 0.37857,-0.173037 0.46631,-0.26078 0.18737,-0.187365 0.98477,-0.223597 1.28693,-0.05848 0.10172,0.05558 0.40704,0.127987 0.6785,0.160898 0.314,0.03807 0.56042,0.122163 0.67733,0.231149 0.13988,0.130387 0.50591,0.22457 1.53229,0.39427 1.29411,0.213962 1.44444,0.221172 3.72534,0.17865 3.02746,-0.05644 4.63812,-0.133546 4.75481,-0.227624 0.0506,-0.0408 0.41255,-0.07083 0.80433,-0.06674 0.39179,0.0041 0.8126,-0.03185 0.93515,-0.07987 0.12254,-0.04802 0.63947,-0.08655 1.14872,-0.08563 0.62693,0.0011 1.0222,-0.03855 1.22409,-0.122904 0.20675,-0.08639 0.60342,-0.123736 1.29372,-0.121819 0.72506,0.002 1.01393,-0.02697 1.06319,-0.106672 0.0493,-0.07978 0.23024,-0.0978 0.66759,-0.06651 0.42948,0.03073 0.66654,0.0081 0.83425,-0.07954 0.35375,-0.184899 1.55142,-0.280753 4.6793,-0.374498 3.956328,-0.118575 4.687338,-0.156416 4.779428,-0.247411 0.095,-0.09386 1.23175,-0.108596 1.23221,-0.01598 1.7e-4,0.03493 0.77057,0.07584 1.71199,0.09092 1.77976,0.02851 4.9924,0.216141 5.65371,0.330202 0.31996,0.05519 0.38576,0.09963 0.4107,0.277382 0.0377,0.26837 0.14587,0.335753 0.5418,0.33737 0.17462,6.88e-4 0.3175,0.0394 0.3175,0.08596 0,0.04657 0.0571,0.08467 0.127,0.08467 0.096,0 0.127,0.103481 0.127,0.423333 0,0.334563 0.0289,0.423333 0.13777,0.423333 0.11395,0 0.13087,0.07181 0.0979,0.415228 l -0.0399,0.415228 0.4629,0.05784 0.46292,0.05784 -0.0391,0.648768 c -0.0238,0.395169 -0.1064,0.7977 -0.2112,1.029769 -0.0946,0.20955 -0.3069,0.70485 -0.47172,1.100666 -0.79742,1.91509 -1.03357,2.464161 -1.32913,3.090335 -0.17583,0.372533 -0.34221,0.744008 -0.36972,0.8255 -0.0275,0.08149 -0.1179,0.148603 -0.20085,0.149138 -0.16661,0.0011 -0.34516,0.338084 -0.60505,1.142029 -0.15725,0.486433 -0.66874,1.836584 -0.89811,2.370666 -0.28542,0.664607 -0.49511,1.205172 -0.63632,1.640398 -0.085,0.261948 -0.42876,1.143019 -0.76395,1.957936 -0.6582,1.600242 -0.97481,2.446623 -1.0539,2.81732 -0.0276,0.129244 -0.12536,0.310219 -0.21731,0.402167 -0.0919,0.09195 -0.16718,0.203385 -0.16718,0.247639 0,0.04425 -0.0493,0.110927 -0.1095,0.148167 -0.0602,0.03724 -0.16234,0.239157 -0.22692,0.448707 -0.0646,0.20955 -0.14474,0.4191 -0.17813,0.465666 -0.0334,0.04657 -0.16288,0.389467 -0.28776,0.762 -0.12488,0.372533 -0.27779,0.791633 -0.33981,0.931333 -0.23257,0.523889 -0.91021,2.327868 -1.31306,3.495556 -0.22951,0.665258 -0.44028,1.246765 -0.46838,1.292236 -0.0281,0.04547 -0.11988,0.320323 -0.20395,0.610777 -0.0841,0.290452 -0.2742,0.851948 -0.42251,1.247765 -0.14831,0.395816 -0.3647,1.005416 -0.48088,1.354666 -0.11618,0.34925 -0.30988,0.88265 -0.43045,1.185334 -0.12056,0.302683 -0.48177,1.331383 -0.80269,2.286 -0.32091,0.954616 -0.61631,1.811874 -0.65644,1.905004 -0.19339,0.44886 -0.34486,0.95878 -0.34486,1.16095 0,0.12317 -0.0571,0.2811 -0.127,0.35095 -0.0699,0.0699 -0.127,0.16681 -0.127,0.21545 0,0.0486 -0.0727,0.2514 -0.16163,0.45055 -0.0889,0.19915 -0.20982,0.53355 -0.268718,0.7431 -0.0589,0.20955 -0.13857,0.4172 -0.17704,0.46143 -0.0385,0.0442 -0.0699,0.24427 -0.0699,0.4445 0,0.2542 -0.0355,0.36407 -0.11758,0.36407 -0.0682,0 -0.14188,0.12954 -0.17549,0.30871 -0.0319,0.16979 -0.11205,0.39134 -0.17823,0.49233 -0.0662,0.101 -0.14534,0.37165 -0.17594,0.60146 -0.0306,0.22981 -0.10406,0.44663 -0.16325,0.48184 -0.0592,0.0352 -0.13456,0.1876 -0.16749,0.33866 -0.0329,0.15107 -0.14609,0.47011 -0.25146,0.70898 -0.10536,0.23888 -0.21806,0.5911 -0.25043,0.78273 -0.0324,0.19162 -0.0892,0.36715 -0.12627,0.39006 -0.0371,0.0229 -0.15501,0.30887 -0.26208,0.63545 -0.18776,0.57274 -0.20436,0.59378 -0.4685,0.59378 -0.15061,0 -0.28668,-0.0386 -0.30239,-0.0857 -0.0157,-0.0471 -0.10875,0.20053 -0.20676,0.55033 l -0.17819,0.63601 h 0.1997 c 0.17178,0 0.1997,0.0414 0.1997,0.29634 0,0.28101 -0.015,0.29633 -0.29014,0.29633 -0.23776,0 -0.313,0.0458 -0.41684,0.254 l -0.12671,0.254 h 0.28984 c 0.28171,0 0.28985,0.01 0.28985,0.33867 0,0.22044 -0.0382,0.33866 -0.10945,0.33866 -0.0602,0 -0.15529,0.17145 -0.21134,0.381 -0.056,0.20955 -0.14014,0.381 -0.18689,0.381 -0.0468,0 -0.085,0.13335 -0.085,0.29634 0,0.20696 -0.0383,0.29633 -0.127,0.29633 -0.0749,0 -0.12748,0.0781 -0.12816,0.1905 -0.003,0.43939 -0.0911,0.5715 -0.38266,0.5715 -0.15367,0 -0.29862,-0.0476 -0.32211,-0.10583 -0.0265,-0.0656 -0.0453,-0.0518 -0.0494,0.0363 -0.0132,0.28125 -0.25198,0.40821 -0.76768,0.40821 -0.27219,0 -0.50759,0.0329 -0.52311,0.0731 -0.0436,0.11278 -1.42522,0.21175 -1.42522,0.1021 0,-0.13728 -0.4726,-0.10816 -0.59267,0.0365 -0.058,0.0698 -0.15789,0.127 -0.22204,0.127 -0.0641,0 -0.11663,0.0571 -0.11663,0.127 0,0.0887 -0.0894,0.127 -0.29633,0.127 h -0.29633 z m 1.57822,-1.09295 c -0.10169,-0.10168 -0.24824,0.12656 -0.18351,0.28581 0.0574,0.14118 0.0699,0.13809 0.15154,-0.0374 0.049,-0.10522 0.0633,-0.21698 0.032,-0.24835 z m 3.07844,-0.56927 c 0,-0.11254 0.0476,-0.22383 0.10584,-0.24732 0.0833,-0.0336 0.0828,-0.0441 -0.002,-0.0494 -0.0594,-0.004 -0.14509,0.091 -0.1905,0.2105 -0.10276,0.27027 -0.10261,0.29082 0.002,0.29082 0.0466,0 0.0847,-0.0921 0.0847,-0.20461 z m 0.59267,-1.36172 c 0,-0.0699 -0.015,-0.127 -0.0333,-0.127 -0.0183,0 -0.0552,0.0572 -0.082,0.127 -0.0268,0.0699 -0.0118,0.127 0.0333,0.127 0.0451,0 0.082,-0.0571 0.082,-0.127 z m 3.67824,-16.446509 c 0.0322,-0.104775 0.0239,-0.1905 -0.0185,-0.1905 -0.081,0 -0.27802,0.571283 -0.2662,0.771822 0.007,0.117898 0.17585,-0.227029 0.28466,-0.581322 z m 0.502558,-1.4913 c 0.25299,-0.759211 0.24748,-0.7312 0.14392,-0.7312 -0.0429,0 -0.10348,0.123825 -0.13472,0.275167 -0.0312,0.151342 -0.11045,0.438423 -0.17605,0.637958 -0.11402,0.346776 -0.15556,0.594262 -0.0872,0.519152 0.0177,-0.01939 0.13197,-0.334888 0.254,-0.701077 z m 8.93995,-24.564866 c 0,-0.04657 -0.0369,-0.02752 -0.0821,0.04233 -0.0451,0.06985 -0.0821,0.1651 -0.0821,0.211666 0,0.04657 0.0369,0.02752 0.0821,-0.04233 0.0452,-0.06985 0.0821,-0.1651 0.0821,-0.211666 z"
       id="path"
       inkscape:label="path">
      <title
         id="title321">path</title>
    </path>
  </g>
</svg>
