<?xml version="1.0" encoding="UTF-8" standalone="no"?>
<!-- Created with Inkscape (http://www.inkscape.org/) -->

<svg
   width="200"
   height="48"
   viewBox="0 0 52.916667 12.7"
   version="1.1"
   id="svg253"
   sodipodi:docname="zednot_full.svg"
   inkscape:version="1.2.2 (b0a8486541, 2022-12-01)"
   inkscape:export-filename="zednot_white.png"
   inkscape:export-xdpi="96"
   inkscape:export-ydpi="96"
   xmlns:inkscape="http://www.inkscape.org/namespaces/inkscape"
   xmlns:sodipodi="http://sodipodi.sourceforge.net/DTD/sodipodi-0.dtd"
   xmlns:xlink="http://www.w3.org/1999/xlink"
   xmlns="http://www.w3.org/2000/svg"
   xmlns:svg="http://www.w3.org/2000/svg">
  <sodipodi:namedview
     id="namedview255"
     pagecolor="#4d4d4d"
     bordercolor="#000000"
     borderopacity="0.25"
     inkscape:showpageshadow="2"
     inkscape:pageopacity="0"
     inkscape:pagecheckerboard="true"
     inkscape:deskcolor="#d1d1d1"
     inkscape:document-units="mm"
     showgrid="false"
     inkscape:zoom="4.4427982"
     inkscape:cx="91.721474"
     inkscape:cy="21.833087"
     inkscape:window-width="1920"
     inkscape:window-height="1011"
     inkscape:window-x="0"
     inkscape:window-y="32"
     inkscape:window-maximized="1"
     inkscape:current-layer="layer2">
    <inkscape:grid
       type="xygrid"
       id="grid882"
       originx="0"
       originy="0" />
  </sodipodi:namedview>
  <defs
     id="defs250">
    <rect
       x="38.275706"
       y="10.653708"
       width="109.70403"
       height="25.56838"
       id="rect5048" />
    <inkscape:path-effect
       effect="fillet_chamfer"
       id="path-effect5028"
       is_visible="true"
       lpeversion="1"
       nodesatellites_param="F,0,0,1,0,1.8520833,0,1 @ F,0,0,1,0,1.8520833,0,1 @ F,0,0,1,0,1.8520833,0,1 @ F,0,0,1,0,1.8520833,0,1"
       unit="px"
       method="auto"
       mode="F"
       radius="7"
       chamfer_steps="1"
       flexible="false"
       use_knot_distance="true"
       apply_no_radius="true"
       apply_with_radius="true"
       only_selected="false"
       hide_knots="false" />
    <linearGradient
       inkscape:collect="always"
       id="linearGradient3502">
      <stop
         style="stop-color:#000000;stop-opacity:1;"
         offset="0"
         id="stop3498" />
      <stop
         style="stop-color:#000000;stop-opacity:0;"
         offset="1"
         id="stop3500" />
    </linearGradient>
    <rect
       x="54.844804"
       y="6.9548756"
       width="114.12619"
       height="28.451656"
       id="rect1759" />
    <rect
       x="64.554609"
       y="14.383973"
       width="112.78225"
       height="24.987881"
       id="rect1703" />
    <linearGradient
       inkscape:collect="always"
       xlink:href="#linearGradient3502"
       id="linearGradient3504"
       x1="72.384163"
       y1="69.840734"
       x2="121.35735"
       y2="69.840734"
       gradientUnits="userSpaceOnUse"
       gradientTransform="matrix(1.0452146,0,0,1.0846795,-74.792397,-69.404811)" />
  </defs>
  <g
     inkscape:groupmode="layer"
     id="layer2"
     inkscape:label="background">
    <rect
       style="fill:url(#linearGradient3504);fill-opacity:1;stroke-width:0.281718;image-rendering:auto"
       id="rect3473"
       width="51.187496"
       height="11.095053"
       x="0.8645888"
       y="0.80247533"
       inkscape:path-effect="#path-effect5028"
       d="m 2.7166721,0.80247533 47.4833299,0 a 1.8520833,1.8520833 45 0 1 1.852083,1.85208327 l 0,7.3908864 a 1.8520833,1.8520833 135 0 1 -1.852083,1.852083 H 2.7166721 A 1.8520833,1.8520833 45 0 1 0.8645888,10.045445 V 2.6545586 A 1.8520833,1.8520833 135 0 1 2.7166721,0.80247533 Z" />
  </g>
  <g
     inkscape:label="logo"
     id="layer1"
     inkscape:groupmode="layer"
     transform="translate(-70.412422,-63.490731)">
    <path
       style="display:inline;fill:#ffffff;fill-opacity:1;stroke-width:0.00502764"
       d="m 76.923129,73.397129 c -0.008,-0.0093 -0.01236,-0.01017 -0.03696,-0.0071 -0.02028,0.0025 -0.03218,0.0014 -0.04359,-0.0039 -0.04299,-0.02046 -0.06966,-0.02985 -0.108703,-0.03827 -0.119458,-0.02577 -0.143026,-0.0305 -0.201106,-0.04039 -0.134806,-0.02295 -0.216498,-0.032 -0.409754,-0.04537 -0.166787,-0.01153 -0.49573,-0.003 -0.573153,0.01489 -0.01105,0.0025 -0.04726,0.0071 -0.08044,0.01015 -0.03318,0.0031 -0.07504,0.0076 -0.09301,0.01026 -0.01797,0.0026 -0.06209,0.007 -0.09804,0.0098 -0.07289,0.0056 -0.166896,0.0169 -0.208078,0.02493 -0.05663,0.01105 -0.233051,0.0027 -0.262305,-0.01247 -0.0079,-0.004 -0.02288,-0.0074 -0.03339,-0.0074 -0.0326,-1.19e-4 -0.04172,-0.0045 -0.04172,-0.02009 0,-0.01164 -0.0039,-0.01593 -0.02388,-0.02581 -0.01949,-0.0097 -0.02419,-0.01461 -0.02557,-0.02693 -9.46e-4,-0.0083 -0.0049,-0.0169 -0.0088,-0.01911 -0.0053,-0.003 -0.0071,-0.01523 -0.007,-0.04776 1.78e-4,-0.05843 0.0047,-0.07496 0.02977,-0.108148 0.01613,-0.02135 0.02683,-0.03015 0.04468,-0.03672 0.02653,-0.0098 0.03922,-0.02268 0.0439,-0.04468 0.0017,-0.0083 0.0084,-0.03544 0.01478,-0.06033 0.0064,-0.02489 0.01432,-0.05769 0.01766,-0.0729 0.0033,-0.0152 0.01054,-0.04179 0.016,-0.05906 0.0054,-0.01728 0.01161,-0.04386 0.01367,-0.05907 l 0.0038,-0.02766 H 74.837 74.82211 l 0.0035,-0.03138 c 0.002,-0.01725 0.0059,-0.03422 0.0088,-0.03771 0.0028,-0.0035 0.01459,-0.0067 0.02601,-0.0072 l 0.02076,-9.47e-4 -0.01907,-0.002 -0.01908,-0.002 0.0015,-0.03613 c 0.0013,-0.03313 0.0024,-0.03627 0.01278,-0.03774 0.0071,-0.001 0.01132,-0.005 0.01132,-0.01101 0,-0.0072 0.0043,-0.0098 0.0185,-0.01096 0.01769,-0.0014 0.01878,-0.0027 0.02461,-0.0267 0.0034,-0.01382 0.0098,-0.03758 0.01438,-0.05279 0.0086,-0.02858 0.01535,-0.05186 0.02278,-0.07792 0.0024,-0.0083 0.009,-0.02803 0.0148,-0.04387 0.0058,-0.01583 0.0105,-0.03387 0.0105,-0.04008 0,-0.01138 0.01772,-0.07547 0.02473,-0.08951 0.0037,-0.0074 0.01492,-0.05074 0.02473,-0.09553 0.0028,-0.01244 0.0083,-0.03283 0.01235,-0.04533 l 0.0074,-0.0227 -0.0202,0.002 -0.02019,0.002 0.0024,-0.03978 c 0.0024,-0.04328 0.0146,-0.07201 0.0303,-0.07201 0.0073,0 0.009,-0.0043 0.009,-0.02388 1.5e-5,-0.01314 0.0037,-0.03067 0.0082,-0.03896 0.0045,-0.0083 0.01071,-0.0264 0.01389,-0.04022 0.0055,-0.02419 0.0065,-0.02519 0.02453,-0.0267 0.01517,-0.0013 0.01887,1.77e-4 0.01934,0.0076 2.88e-4,0.005 0.0024,0.0013 0.0047,-0.0085 0.0072,-0.03052 0.02667,-0.08269 0.03343,-0.0896 0.0035,-0.0036 0.0065,-0.0093 0.0065,-0.01258 -4.7e-5,-0.0039 -0.0014,-0.0038 -0.0043,7.16e-4 -0.0025,0.0039 -0.01102,0.006 -0.02128,0.005 -0.01681,-0.0017 -0.01707,-0.002 -0.01676,-0.02532 1.79e-4,-0.01303 0.003,-0.02887 0.0063,-0.03519 0.0033,-0.0063 0.0076,-0.02734 0.0097,-0.0467 0.0032,-0.02976 0.0055,-0.03596 0.01508,-0.04015 0.0078,-0.0034 0.01131,-0.0093 0.01131,-0.01885 0,-0.01252 0.0017,-0.01389 0.0176,-0.01389 0.01553,0 0.0176,0.0015 0.0176,0.01287 0,0.0073 0.0021,0.01152 0.005,0.0098 0.0028,-0.0017 0.005,-0.01202 0.005,-0.02292 0,-0.01778 -0.0013,-0.01982 -0.01257,-0.01982 -0.0092,0 -0.01257,-0.0027 -0.01257,-0.01005 0,-0.0055 -0.0023,-0.01005 -0.005,-0.01005 -0.0081,0 -0.0058,-0.02176 0.0076,-0.07339 0.0069,-0.02661 0.01257,-0.05145 0.01257,-0.0552 0,-0.0038 0.01131,-0.03052 0.02513,-0.05947 0.01382,-0.02895 0.02517,-0.05674 0.02521,-0.06176 1.19e-4,-0.01337 0.01221,-0.0455 0.02898,-0.07699 0.01004,-0.01883 0.01565,-0.038 0.01759,-0.06012 0.0019,-0.02112 0.0056,-0.03449 0.01079,-0.03826 0.005,-0.0037 0.008,-0.01368 0.008,-0.02787 5.9e-5,-0.01411 0.0054,-0.03295 0.01498,-0.05223 0.0082,-0.01659 0.01493,-0.03582 0.015,-0.04273 6e-5,-0.0069 0.0047,-0.01936 0.01013,-0.02765 0.0054,-0.0083 0.01001,-0.01982 0.01002,-0.02561 1.5e-5,-0.0058 0.0046,-0.01464 0.01009,-0.01964 0.007,-0.0064 0.01005,-0.01549 0.01005,-0.03031 0,-0.01326 0.0047,-0.02962 0.01254,-0.04365 0.0069,-0.01237 0.01581,-0.04118 0.01983,-0.0642 0.004,-0.02298 0.0097,-0.04416 0.0126,-0.04708 0.0029,-0.0029 0.0054,-0.0112 0.0054,-0.01838 0,-0.0072 0.002,-0.01522 0.0043,-0.01785 0.0024,-0.0026 0.0082,-0.01948 0.01302,-0.03746 0.0048,-0.01797 0.01516,-0.05191 0.02301,-0.07542 0.0079,-0.0235 0.03042,-0.09364 0.05017,-0.155857 0.01975,-0.06222 0.04117,-0.128959 0.04761,-0.148315 0.0065,-0.01936 0.02235,-0.06913 0.03535,-0.110609 0.03504,-0.111809 0.08785,-0.274021 0.09575,-0.294118 0.01029,-0.02622 0.01733,-0.05589 0.01736,-0.07318 1.5e-5,-0.0085 0.0057,-0.02303 0.0126,-0.0324 0.0069,-0.0094 0.01257,-0.01919 0.01257,-0.02183 0,-0.0027 0.0048,-0.01803 0.01073,-0.03421 l 0.01073,-0.02943 h 0.02698 c 0.02562,0 0.02698,6.44e-4 0.02698,0.01292 0,0.01046 0.0021,0.01262 0.0111,0.01131 0.007,-10e-4 0.01217,-0.0062 0.01403,-0.01418 0.0024,-0.0106 0.0062,-0.01281 0.02409,-0.01412 0.01913,-0.0014 0.0212,-4.16e-4 0.02149,0.01005 l 2.88e-4,0.01161 0.0046,-0.01131 c 0.0039,-0.01 0.0081,-0.01132 0.03458,-0.01132 0.01651,0 0.03144,-0.0023 0.03316,-0.005 0.0032,-0.005 -0.121775,-0.0021 -0.138282,0.0033 -0.0176,0.0057 -0.505913,0.01157 -0.532932,0.0064 -0.01521,-0.0029 -0.035,-0.0065 -0.04399,-0.008 -0.01011,-0.0017 -0.01634,-0.0057 -0.01634,-0.01045 0,-0.0096 -0.01451,-0.021 -0.02696,-0.02121 -0.0084,-1.19e-4 -0.0092,-0.0037 -0.0074,-0.03536 0.0015,-0.02631 3.61e-4,-0.03519 -0.0045,-0.03519 -0.0042,0 -0.0065,-0.0071 -0.0065,-0.02011 0,-0.01106 0.0023,-0.02011 0.005,-0.02011 0.0028,0 0.005,-0.0054 0.005,-0.01196 0,-0.01456 0.0085,-0.02217 0.02928,-0.02633 0.01299,-0.0026 0.01631,-0.0062 0.01893,-0.02014 l 0.0032,-0.01699 h 0.03715 c 0.0338,0 0.03715,9.46e-4 0.03715,0.01005 0,0.0095 0.0033,0.01005 0.06536,0.01005 0.06201,0 0.06536,5.32e-4 0.06536,0.01005 0,0.0067 0.0033,0.01005 0.01005,0.01005 0.0073,0 0.01005,-0.0033 0.01005,-0.01257 v -0.01257 h 0.0553 c 0.05289,0 0.0553,4.55e-4 0.0553,0.0106 0,0.0076 0.0022,0.0097 0.0079,0.0076 0.0043,-0.0017 0.01456,-0.0031 0.02262,-0.0031 0.01132,0 0.01467,-0.0024 0.01467,-0.01005 0,-0.0084 0.0033,-0.01005 0.02012,-0.01005 0.01799,0 0.02012,-0.0013 0.02012,-0.01234 0,-0.01493 0.0055,-0.01609 0.09678,-0.02015 l 0.0641,-0.0028 v 0.01265 c 0,0.0079 0.0028,0.01265 0.0076,0.01265 0.0047,0 0.0076,0.0048 0.0076,0.01296 v 0.01296 l 0.03394,-0.0035 c 0.03692,-0.0039 0.04747,-0.0073 0.0222,-0.0073 -0.01485,0 -0.01592,-0.0012 -0.01592,-0.0176 0,-0.01425 0.002,-0.0176 0.01005,-0.0176 0.0055,0 0.01005,-0.0031 0.01005,-0.0068 0,-0.005 0.01345,-0.0076 0.05279,-0.01005 0.175812,-0.0109 0.158372,-0.01101 0.158372,9.46e-4 0,0.0075 0.0032,0.01082 0.01005,0.01082 0.0056,0 0.01005,-0.0033 0.01005,-0.0076 0,-0.0042 0.0034,-0.0076 0.0076,-0.0076 0.0042,0 0.0076,-0.0025 0.0076,-0.0057 0,-0.0038 0.0076,-0.0048 0.02242,-0.0032 0.01233,0.0014 0.02308,5.31e-4 0.02389,-0.002 0.0017,-0.0053 0.255555,-0.01579 0.273305,-0.01132 0.0074,0.0019 0.01221,8.67e-4 0.01221,-0.0024 0,-0.01009 0.221208,-0.0059 0.395364,0.0074 0.04405,0.0034 0.04608,0.0031 0.04936,-0.0073 0.0031,-0.0097 0.0071,-0.01077 0.03843,-0.01077 0.02648,0 0.03571,0.0018 0.03791,0.0076 0.0019,0.005 0.0097,0.0076 0.02262,0.0076 0.0129,0 0.02073,0.0026 0.02262,0.0076 0.0017,0.0043 0.0092,0.0076 0.01792,0.0076 0.02053,0 0.04321,0.0171 0.04517,0.03405 0.0013,0.01178 0.0055,0.01501 0.02968,0.02285 0.02371,0.0077 0.02914,0.01179 0.03478,0.02616 0.0042,0.0106 0.01064,0.01758 0.01714,0.01852 0.0087,0.0013 0.01047,0.005 0.01047,0.02287 0,0.01176 0.0017,0.02137 0.0038,0.02136 0.002,-4e-6 0.0038,0.0039 0.0038,0.0088 0,0.01011 0.03493,0.0264 0.0566,0.0264 0.01277,0 0.01377,0.0015 0.01377,0.02058 0,0.01635 -0.0021,0.02112 -0.01006,0.02322 -0.0055,0.0014 -0.01006,0.0058 -0.01006,0.0097 0,0.01199 -0.03376,0.04198 -0.04726,0.04198 -0.008,0 -0.01353,0.0035 -0.01558,0.01005 -0.0017,0.0055 -0.0076,0.01005 -0.0129,0.01005 -0.0054,0 -0.0097,0.0023 -0.0097,0.005 0,0.0062 -0.0436,0.0067 -0.04742,5.31e-4 -0.0014,-0.0024 -0.01014,-0.0057 -0.01915,-0.0071 -0.009,-0.0014 -0.02543,-0.0054 -0.03649,-0.0088 -0.01106,-0.0034 -0.03269,-0.0058 -0.04805,-0.0054 -0.02289,6.51e-4 -0.03381,-0.0021 -0.06033,-0.01594 -0.06336,-0.03286 -0.118452,-0.04004 -0.303882,-0.03958 -0.14372,3.6e-4 -0.297725,0.0079 -0.329311,0.01624 -0.0097,0.0025 -0.02609,0.0047 -0.03646,0.0047 -0.01037,1.5e-5 -0.01885,0.0023 -0.01885,0.005 0,0.0032 -0.03467,0.0046 -0.09427,0.0038 -0.05185,-6.51e-4 -0.114064,7.16e-4 -0.13826,0.0031 l -0.04399,0.0043 v 0.01658 c 0,0.0091 -0.0079,0.041 -0.01759,0.07086 -0.0097,0.02986 -0.0176,0.05978 -0.0176,0.06649 0,0.0067 -0.0079,0.03335 -0.0176,0.05918 -0.0097,0.02584 -0.01759,0.04935 -0.01759,0.05223 0,0.0028 0.0057,0.0053 0.01257,0.0053 0.01131,0 0.01257,0.002 0.01257,0.02011 0,0.01963 -4.17e-4,0.02012 -0.0176,0.02012 -0.01056,0 -0.01773,-0.0024 -0.01792,-0.0063 -1.78e-4,-0.0035 -0.0024,-9.47e-4 -0.005,0.0054 -0.0059,0.01482 -0.0023,0.0209 0.01261,0.0209 0.0079,0 0.01268,0.0036 0.01471,0.01131 0.0047,0.01744 0.0037,0.04088 -0.0024,0.05832 -0.0047,0.01358 -0.008,0.01583 -0.02262,0.01583 h -0.0171 l -3.6e-4,-0.02891 -3.6e-4,-0.02891 -0.0075,0.02012 c -0.0041,0.01105 -0.008,0.03651 -0.0087,0.05656 -0.0012,0.03548 -9.47e-4,0.03646 0.01086,0.03646 0.01127,0 0.01191,0.0014 0.0095,0.02136 -0.0036,0.03042 -0.0145,0.06913 -0.01942,0.06913 -0.0024,0 -0.0042,0.0045 -0.0042,0.01005 0,0.0055 -0.0023,0.01005 -0.005,0.01005 -0.0028,0 -0.005,0.0072 -0.005,0.01598 0,0.01832 -0.01012,0.04938 -0.01609,0.04938 -0.0022,0 -0.004,0.0065 -0.004,0.01449 0,0.01 -0.0029,0.01527 -0.0095,0.01698 -0.0081,0.0021 -0.0091,0.0059 -0.0069,0.02573 l 0.0026,0.02324 h -0.01825 c -0.01692,0 -0.01825,-0.0011 -0.01825,-0.01509 0,-0.0097 -0.0025,-0.01508 -0.0072,-0.01508 -0.0049,0 -0.01624,0.02784 -0.03519,0.08618 -0.0154,0.0474 -0.028,0.08834 -0.028,0.09099 0,0.0027 -0.0032,0.01195 -0.0071,0.02066 -0.01398,0.03122 -0.04116,0.12669 -0.04563,0.160328 -0.0017,0.0131 -0.0059,0.02668 -0.0092,0.03017 -0.0096,0.01 -0.02247,0.04445 -0.0259,0.06919 -0.0017,0.01244 -0.0062,0.02722 -0.0098,0.03284 -0.0037,0.0056 -0.01063,0.02372 -0.01546,0.04022 -0.0048,0.0165 -0.01077,0.03453 -0.01321,0.04006 -0.0024,0.0055 -0.0089,0.0313 -0.01441,0.05728 -0.0054,0.02598 -0.01565,0.05962 -0.02259,0.07476 -0.0079,0.01724 -0.01261,0.03658 -0.01261,0.05171 0,0.01329 -0.0028,0.02716 -0.0063,0.03081 -0.0086,0.0091 -0.01885,0.03961 -0.01885,0.05602 0,0.0074 -0.002,0.01347 -0.0044,0.01347 -0.0024,0 -0.0073,0.0073 -0.01064,0.01634 -0.0034,0.009 -0.0094,0.02347 -0.01318,0.03218 -0.0039,0.0087 -0.0068,0.01889 -0.0065,0.02262 2.34e-4,0.0037 0.0027,5.3e-4 0.0054,-0.007 0.0042,-0.0114 0.0081,-0.01383 0.02223,-0.01383 0.01706,0 0.01717,1.78e-4 0.01717,0.02308 0,0.01447 -0.01043,0.05482 -0.02795,0.108096 l -0.02795,0.08501 h -0.0173 c -0.01645,0 -0.0173,-8.68e-4 -0.0173,-0.01776 0,-0.0098 0.0034,-0.02588 0.0076,-0.03581 0.0089,-0.02121 0.0089,-0.02185 0.0029,-0.02185 -0.0078,0 -0.02236,0.05147 -0.02102,0.07416 7.81e-4,0.01268 -9.47e-4,0.02136 -0.0042,0.02136 -0.0029,0 -0.0054,0.0034 -0.0054,0.0076 0,0.0042 -0.0041,0.01163 -0.0091,0.01662 -0.0057,0.0057 -0.01254,0.02742 -0.01825,0.05782 -0.005,0.0268 -0.01114,0.04873 -0.01354,0.04873 -0.0024,0 -0.0043,0.0091 -0.0043,0.02032 0,0.01246 -0.0034,0.024 -0.0089,0.02983 -0.0049,0.0052 -0.01185,0.02041 -0.0155,0.03373 -0.0036,0.01332 -0.0087,0.02874 -0.01127,0.03428 -0.0058,0.01251 -0.04223,0.135797 -0.09074,0.306687 -0.0054,0.01936 -0.0131,0.04854 -0.01691,0.06487 -0.0087,0.03742 -0.02676,0.09574 -0.03664,0.118443 -0.0042,0.0096 -0.0087,0.0273 -0.01005,0.0394 -0.0013,0.01209 -0.0055,0.02318 -0.0093,0.02462 -0.0038,0.0014 -0.0069,0.0097 -0.0069,0.01842 -1.5e-5,0.0087 -0.0046,0.02258 -0.01002,0.03089 -0.0054,0.0083 -0.01,0.02025 -0.01002,0.02657 -1.6e-5,0.0063 -0.0032,0.0165 -0.0072,0.02262 -0.0086,0.01333 -0.01798,0.0621 -0.01798,0.09317 0,0.02881 -0.0097,0.06125 -0.01839,0.06125 -0.005,0 -0.0068,0.0086 -0.0068,0.03227 0,0.03563 -0.0032,0.04817 -0.01199,0.04817 -0.0039,0 -0.0052,0.0071 -0.0039,0.02043 0.0017,0.01713 2.88e-4,0.02087 -0.0081,0.02307 -0.0083,0.0021 -0.0107,0.0085 -0.01353,0.03487 -0.0022,0.02064 -0.0058,0.03223 -0.0098,0.03223 -0.0046,0 -0.0057,0.0076 -0.004,0.02757 0.0019,0.0222 6.51e-4,0.02818 -0.0058,0.03071 -0.0061,0.0024 -0.0082,0.0097 -0.0082,0.02876 0,0.02683 -0.02809,0.135472 -0.03578,0.13837 -0.0024,9.47e-4 -0.0044,0.0066 -0.0044,0.01276 0,0.0062 -0.0043,0.01937 -0.0094,0.02947 -0.0079,0.01553 -0.0082,0.01882 -0.0021,0.02117 0.01411,0.0054 0.183541,0.0027 0.291649,-0.0047 0.191508,-0.01306 0.303464,-0.01724 0.379446,-0.01414 l 0.07389,0.0031 0.0021,0.01306 0.0021,0.01306 7.81e-4,-0.01382 c 6.51e-4,-0.01265 0.0024,-0.01382 0.02087,-0.01382 0.019,0 0.02011,9.46e-4 0.02011,0.01508 0,0.01714 1.7e-5,0.01714 0.01736,0.0093 0.0084,-0.0039 0.01281,-0.0099 0.01281,-0.0176 0,-0.01173 2.35e-4,-0.01177 0.06495,-0.01177 0.03572,0 0.06853,0.0014 0.0729,0.0031 0.005,0.002 0.0079,0.0092 0.0079,0.02011 0,0.0118 0.0024,0.01706 0.0076,0.01706 0.0053,0 0.0076,-0.0054 0.0076,-0.0176 0,-0.01714 5.32e-4,-0.0176 0.01981,-0.0176 0.01926,0 0.01985,5.31e-4 0.02136,0.01885 0.0015,0.01769 0.0024,0.01875 0.01665,0.01717 0.0083,-9.46e-4 0.03149,-0.0019 0.05153,-0.0022 l 0.03646,-5.31e-4 v -0.01414 c 0,-0.01341 0.0012,-0.01415 0.02262,-0.01415 0.02237,0 0.02262,1.78e-4 0.02262,0.01708 0,0.01704 6e-5,0.0171 0.03183,0.02262 0.01751,0.0031 0.04522,0.0055 0.06159,0.0056 0.01636,0 0.04333,0.0024 0.05992,0.005 0.02549,0.0043 0.03308,0.0037 0.04896,-0.0038 0.01034,-0.0049 0.01882,-0.01168 0.01885,-0.01513 3.1e-5,-0.0041 0.008,-0.0062 0.02268,-0.0062 0.02078,0 0.02262,10e-4 0.02262,0.01258 0,0.0069 0.0024,0.01258 0.0054,0.01258 0.0029,0 0.0085,0.0032 0.01231,0.0069 0.0038,0.0038 0.02232,0.0096 0.04112,0.01292 0.07528,0.01322 0.147328,0.02621 0.195082,0.03518 0.09142,0.01717 0.08296,0.01718 0.08296,-4.7e-5 0,-0.0083 0.0036,-0.02068 0.0081,-0.02747 0.0087,-0.01321 0.01094,-0.02706 0.02707,-0.163278 0.02149,-0.18152 0.03081,-0.244805 0.04099,-0.278293 0.0058,-0.01895 0.01438,-0.06872 0.01915,-0.110608 0.0076,-0.0665 0.0078,-0.07798 0.0015,-0.09055 -0.01162,-0.02334 -0.01408,-0.06512 -0.0044,-0.07479 0.0045,-0.0045 0.0081,-0.01384 0.0081,-0.02078 0,-0.0069 0.0023,-0.01404 0.005,-0.01575 0.0028,-0.0017 0.005,-0.01008 0.005,-0.01859 0,-0.0085 0.005,-0.02535 0.01094,-0.03741 0.01033,-0.02069 0.01214,-0.02192 0.03221,-0.02192 0.02115,0 0.02131,-1.19e-4 0.0275,-0.02388 0.0051,-0.01972 0.0114,-0.02816 0.03601,-0.04845 l 0.02978,-0.02458 0.035,0.0032 c 0.01924,0.0017 0.03889,0.0054 0.04365,0.0079 0.0047,0.0025 0.01262,0.0058 0.01745,0.0073 0.0054,0.0017 0.0088,0.0077 0.0088,0.0161 0,0.0093 0.0072,0.02044 0.0237,0.0366 0.02797,0.02741 0.03664,0.04188 0.03664,0.0612 0,0.0078 0.002,0.01544 0.0044,0.01695 0.0024,0.0014 0.006,0.01503 0.0079,0.03004 0.0031,0.0246 0.005,0.02807 0.02016,0.03523 0.0092,0.0043 0.01811,0.01153 0.0198,0.01593 0.006,0.01568 0.0028,0.04809 -0.0064,0.06643 -0.01353,0.02677 -0.02576,0.08565 -0.02576,0.124127 0,0.0243 -0.002,0.03384 -0.0073,0.0359 -0.01197,0.0046 -0.01677,0.03054 -0.01993,0.107492 -0.0017,0.04009 -0.0067,0.102931 -0.01123,0.139638 -0.0067,0.05446 -0.0072,0.07319 -0.0024,0.101811 0.0032,0.0193 0.0072,0.05839 0.009,0.08688 0.0028,0.04468 0.0019,0.05453 -0.0063,0.07164 -0.011,0.02297 -0.01157,0.05869 -0.0024,0.159723 0.0062,0.07017 0.0028,0.08952 -0.01708,0.09306 -0.0055,9.47e-4 -0.01793,0.0094 -0.02761,0.01864 -0.02205,0.02112 -0.05719,0.03725 -0.0814,0.0374 -0.0102,5.8e-5 -0.01995,0.0024 -0.02166,0.0051 -0.0017,0.0028 -0.0183,0.005 -0.03689,0.005 -0.02812,0 -0.0353,-0.0017 -0.04284,-0.01058 z m -1.99795,-0.41541 c 0.0062,-0.0017 0.0087,-0.0073 0.0084,-0.01828 l -4.17e-4,-0.01575 -0.0072,0.01634 c -0.0062,0.01396 -0.0097,0.01634 -0.02473,0.01634 -0.01699,0 -0.01758,-7.17e-4 -0.01745,-0.01885 1.18e-4,-0.01787 0.01074,-0.06472 0.03498,-0.154372 0.0059,-0.022 0.01183,-0.04164 0.01308,-0.04365 0.0013,-0.002 0.0043,-0.01342 0.0069,-0.02537 0.0025,-0.01193 0.01038,-0.04207 0.01738,-0.06696 0.007,-0.02489 0.02166,-0.07805 0.03258,-0.11815 0.01092,-0.0401 0.02353,-0.08534 0.02802,-0.100553 0.0045,-0.0152 0.01149,-0.0401 0.01556,-0.0553 0.004,-0.0152 0.01073,-0.03896 0.0148,-0.05279 0.0072,-0.02446 0.04415,-0.15546 0.06098,-0.216189 0.01209,-0.04361 0.02643,-0.09127 0.03745,-0.124456 0.0053,-0.01591 0.0095,-0.03967 0.0094,-0.05279 l -2.34e-4,-0.02386 -0.0067,0.0176 c -0.01394,0.03675 -0.05817,0.17626 -0.05817,0.18349 0,0.0042 -0.0023,0.0076 -0.005,0.0076 -0.0028,0 -0.005,0.0078 -0.005,0.01725 0,0.01499 -0.0017,0.01747 -0.01354,0.01886 -0.01083,0.0013 -0.01436,0.005 -0.01765,0.01919 -0.0023,0.0097 -0.0062,0.02552 -0.0089,0.03519 -0.0027,0.0097 -0.0062,0.02269 -0.0078,0.02891 -0.0022,0.0082 -8.67e-4,0.01131 0.0048,0.01131 0.0054,0 0.0079,0.0047 0.0079,0.01467 0,0.02231 -0.0049,0.03058 -0.01814,0.03058 -0.0066,0 -0.01203,0.0023 -0.01203,0.005 0,0.0028 0.0023,0.005 0.005,0.005 0.0028,0 0.005,0.01019 0.005,0.02262 0,0.02041 -0.0011,0.02262 -0.01184,0.02262 -0.0097,0 -0.01323,0.0043 -0.01952,0.02389 -0.0065,0.02007 -0.0065,0.02414 -7.16e-4,0.0255 0.008,0.0019 0.0098,0.03608 0.002,0.03608 -0.0028,0 -0.005,0.0068 -0.005,0.01508 0,0.01256 -0.002,0.01508 -0.01202,0.01508 -0.0066,0 -0.0134,0.0035 -0.01508,0.0079 -0.0047,0.01225 -0.0035,0.02724 0.002,0.02724 0.0074,0 0.0062,0.03795 -0.002,0.05724 -0.0039,0.0092 -0.0086,0.02607 -0.0105,0.03754 -0.002,0.01146 -0.0054,0.02085 -0.0076,0.02085 -0.0022,0 -0.0052,0.0096 -0.0065,0.02136 -0.0025,0.0221 -0.01498,0.07411 -0.03333,0.139516 -0.0058,0.02074 -0.01544,0.05637 -0.02139,0.07919 -0.0095,0.03666 -0.01214,0.04148 -0.02227,0.04148 -0.0063,0 -0.01286,0.0023 -0.01456,0.005 -0.0017,0.0028 7.17e-4,0.005 0.0054,0.005 0.0073,0 0.0081,0.0039 0.0057,0.02764 -0.0026,0.02545 -0.002,0.02784 0.0081,0.03001 0.02319,0.005 0.03637,0.0062 0.04363,0.0039 0.0042,-0.0013 0.0115,-0.0035 0.01635,-0.0049 z m 0.05234,-0.203721 c -0.0014,-0.0035 -0.0025,-5.31e-4 -0.0025,0.0062 0,0.0069 0.0011,0.0097 0.0025,0.0062 0.0014,-0.0035 0.0014,-0.0091 0,-0.01258 z m 0.0116,-0.03645 c 0,-0.0028 -0.0022,-0.0017 -0.0049,0.0024 -0.0027,0.0042 -0.0049,0.0098 -0.0049,0.01258 0,0.0028 0.0022,0.0017 0.0049,-0.0024 0.0027,-0.0042 0.0049,-0.0098 0.0049,-0.01256 z m 0.0035,-0.01854 c -0.0016,-0.004 -0.0028,-0.0028 -0.0031,0.0031 -2.35e-4,0.0053 9.46e-4,0.0083 0.0027,0.0066 0.0017,-0.0017 0.0019,-0.006 4.17e-4,-0.0096 z m 0.01,-0.03551 c -0.0014,-0.0035 -0.0025,-5.32e-4 -0.0025,0.0062 0,0.0069 0.0011,0.0097 0.0025,0.0062 0.0014,-0.0035 0.0014,-0.0091 0,-0.01258 z m -0.112865,-0.109351 c 0.0013,-0.0083 3.59e-4,-0.01508 -0.002,-0.01508 -0.0023,0 -0.0042,0.0068 -0.0042,0.01508 0,0.0083 8.67e-4,0.01508 0.002,0.01508 0.001,0 0.0029,-0.0068 0.0042,-0.01508 z m 0.158114,-0.06159 c -0.0014,-0.0035 -0.0025,-7.16e-4 -0.0025,0.0062 0,0.0069 0.0011,0.0097 0.0025,0.0062 0.0014,-0.0035 0.0014,-0.0091 0,-0.01256 z m 0.01005,-0.04022 c -0.0014,-0.0035 -0.0025,-5.3e-4 -0.0025,0.0062 0,0.0069 0.0011,0.0097 0.0025,0.0062 0.0014,-0.0035 0.0014,-0.0091 0,-0.01258 z m 0.02669,-0.0817 c 0,-0.0028 -0.0022,-0.0017 -0.0049,0.0024 -0.0027,0.0042 -0.0049,0.0098 -0.0049,0.01256 0,0.0028 0.0022,0.0017 0.0049,-0.0024 0.0027,-0.0042 0.0049,-0.0098 0.0049,-0.01258 z m 0.0095,-0.03518 v -0.01006 l -0.0043,0.01006 c -0.0024,0.0055 -0.0043,0.01457 -0.0043,0.02012 v 0.01006 l 0.0043,-0.01006 c 0.0024,-0.0055 0.0043,-0.01457 0.0043,-0.02012 z m 0.01311,-0.04022 c 0.0047,-0.02636 -4.17e-4,-0.02102 -0.0067,0.007 -0.0027,0.012 -0.0032,0.01986 -8.68e-4,0.01745 0.0022,-0.0024 0.0056,-0.01342 0.0076,-0.02449 z m -0.03275,-0.388386 c 1.18e-4,-0.0035 -0.0032,-0.0062 -0.0073,-0.0062 -0.0056,0 -0.0074,0.0055 -0.0072,0.02137 l 4.17e-4,0.02136 0.0069,-0.01509 c 0.0038,-0.0083 0.007,-0.01791 0.0072,-0.02137 z m 0.09756,-0.02023 c 0.0013,-0.0021 8.68e-4,-0.01145 -10e-4,-0.02068 l -0.0034,-0.0168 -0.0055,0.02068 c -0.0044,0.01647 -0.0042,0.02068 0.001,0.02068 0.0035,0 0.0076,-0.0017 0.009,-0.0039 z m 0.0066,-0.06241 c -0.0016,-0.004 -0.0028,-0.0028 -0.0031,0.0031 -2.34e-4,0.0053 9.46e-4,0.0083 0.0027,0.0066 0.0017,-0.0017 0.0019,-0.006 4.17e-4,-0.0096 z m 0.03131,-0.06315 c 0.0097,-0.03556 0.02134,-0.115802 0.0124,-0.08572 -0.0014,0.0047 -0.01117,0.03582 -0.02173,0.06913 -0.01637,0.05167 -0.01798,0.06058 -0.01095,0.06058 0.0061,0 0.01138,-0.01148 0.02028,-0.04399 z m 0.0408,-0.136047 c 0.0047,-0.01437 0.0073,-0.03235 0.0058,-0.03994 -0.0022,-0.01163 -0.0045,-0.0079 -0.01429,0.0239 -0.01344,0.04357 -0.01388,0.04677 -0.006,0.04413 0.0032,-0.001 0.0097,-0.01371 0.01438,-0.02809 z m -0.06549,-0.08643 c 0,-0.0028 -9.46e-4,-0.005 -0.0022,-0.005 -0.0013,0 -0.0035,0.0023 -0.0054,0.005 -0.0017,0.0028 -7.17e-4,0.005 0.0022,0.005 0.0029,0 0.0054,-0.0023 0.0054,-0.005 z m 0.103987,-0.07636 c -0.0016,-0.004 -0.0028,-0.0028 -0.0031,0.0031 -2.35e-4,0.0053 9.46e-4,0.0083 0.0027,0.0066 0.0017,-0.0017 0.0019,-0.006 4.18e-4,-0.0096 z m 0.01509,-0.05028 c -0.0016,-0.004 -0.0028,-0.0028 -0.0031,0.0031 -2.35e-4,0.0053 9.46e-4,0.0083 0.0027,0.0066 0.0017,-0.0017 0.0019,-0.006 4.17e-4,-0.0096 z m -0.05873,-0.0619 c 0,-0.0069 -0.002,-0.01257 -0.0043,-0.01257 -0.0024,0 -0.0032,0.0057 -0.002,0.01257 0.0013,0.0069 0.0032,0.01257 0.0043,0.01257 0.001,0 0.002,-0.0057 0.002,-0.01257 z m 0.08706,0.0038 c 0.0013,-0.0021 3.6e-4,-0.0083 -0.0019,-0.01383 -0.0022,-0.0055 -0.0043,-0.0074 -0.0044,-0.0042 -1.78e-4,0.0032 -0.0017,0.0094 -0.0034,0.01383 -0.003,0.0079 0.0054,0.0115 0.0097,0.0042 z m 0.138266,-0.08435 c -0.0016,-0.0016 -0.0043,0.0013 -0.0062,0.0061 -0.0028,0.0072 -0.0021,0.0077 0.0028,0.0028 0.0035,-0.0034 0.005,-0.0075 0.0034,-0.009 z m -0.111231,-0.02847 c -0.0016,-0.004 -0.0028,-0.0028 -0.0031,0.0031 -2.34e-4,0.0053 9.47e-4,0.0083 0.0027,0.0066 0.0017,-0.0017 0.0019,-0.006 4.18e-4,-0.0096 z m 0.01,-0.03551 c -0.0014,-0.0035 -0.0025,-6.44e-4 -0.0025,0.0063 0,0.0069 0.0011,0.0097 0.0025,0.0063 0.0014,-0.0035 0.0014,-0.0091 0,-0.01257 z m 0.171259,-0.695588 c -0.0017,-0.0017 -0.006,-0.0019 -0.0096,-4.17e-4 -0.004,0.0016 -0.0028,0.0028 0.0031,0.0031 0.0053,2.34e-4 0.0083,-9.46e-4 0.0066,-0.0027 z m 0.279855,-0.306562 c 0.0017,-0.0043 0.0016,-0.01394 -2.88e-4,-0.02128 l -0.0033,-0.01333 -0.0063,0.01751 c -0.0035,0.0096 -0.0065,0.01921 -0.0067,0.02128 -7.16e-4,0.0073 0.01366,0.0036 0.01667,-0.0042 z m -7.17e-4,-0.543404 c -0.0035,-0.0014 -0.0091,-0.0014 -0.01257,0 -0.0035,0.0014 -6.44e-4,0.0025 0.0063,0.0025 0.0069,0 0.0097,-0.0011 0.0063,-0.0025 z m -0.07039,-0.266006 c 0.02419,-0.0017 0.04399,-0.0046 0.044,-0.0064 1e-6,-0.0018 -0.02319,-0.0019 -0.05153,-5.9e-5 -0.02835,0.0017 -0.05776,0.0035 -0.06536,0.0038 -0.0076,2.88e-4 -0.01382,0.0024 -0.01382,0.005 0,0.0024 0.0096,0.0035 0.02137,0.0026 0.01175,-9.46e-4 0.04117,-0.0032 0.06536,-0.0049 z m 0.219959,-0.01473 c 0,-0.0042 -0.0023,-0.0076 -0.005,-0.0076 -0.0028,0 -0.005,0.0034 -0.005,0.0076 0,0.0042 0.0023,0.0076 0.005,0.0076 0.0028,0 0.005,-0.0034 0.005,-0.0076 z m 0.125691,-0.01005 c 0,-0.0042 -0.0034,-0.0076 -0.0076,-0.0076 -0.0042,0 -0.0076,0.0034 -0.0076,0.0076 0,0.0042 0.0034,0.0076 0.0076,0.0076 0.0042,0 0.0076,-0.0034 0.0076,-0.0076 z m 1.975868,3.939405 c 0,-0.0088 -0.0024,-0.0095 -0.02536,-0.0068 -0.02429,0.0028 -0.02888,0.0017 -0.06494,-0.01537 -0.0079,-0.0037 -0.01359,-0.01183 -0.01569,-0.02207 -0.0018,-0.0089 -0.0081,-0.02016 -0.01396,-0.02505 -0.0093,-0.0077 -0.0111,-0.01627 -0.01398,-0.06541 l -0.0033,-0.05653 0.02487,-0.02642 c 0.01617,-0.01714 0.02881,-0.037 0.03608,-0.05659 0.01114,-0.02995 0.03351,-0.05279 0.05173,-0.05279 0.0041,0 0.01517,-0.0079 0.02456,-0.0176 0.01288,-0.01329 0.02121,-0.0176 0.03412,-0.0176 0.01756,0 0.03543,0.01479 0.03642,0.03017 3.6e-4,0.0045 0.0024,0.0029 0.005,-0.0038 0.0039,-0.01 0.0081,-0.01132 0.03448,-0.01132 0.02969,0 0.02996,1.19e-4 0.03346,0.01634 0.0058,0.0271 0.03092,0.07048 0.0575,0.09954 0.0138,0.01508 0.02512,0.03008 0.02515,0.03335 4.8e-5,0.0032 0.0051,0.0066 0.01139,0.0076 0.0095,0.0013 0.01157,0.0052 0.01288,0.02356 0.001,0.01635 -9.46e-4,0.0247 -0.0083,0.03268 -0.0054,0.0059 -0.01404,0.01864 -0.01917,0.02833 -0.02557,0.04831 -0.04326,0.05958 -0.10654,0.0679 -0.022,0.0028 -0.03131,0.0075 -0.05171,0.02562 -0.0205,0.01822 -0.02838,0.0221 -0.04482,0.0221 -0.01643,0 -0.01994,-0.0017 -0.01994,-0.0098 z M 74.793198,72.7516 c 0,-0.01676 8.68e-4,-0.01759 0.01759,-0.01759 0.01676,0 0.0176,9.46e-4 0.0176,0.01759 0,0.01676 -8.67e-4,0.0176 -0.0176,0.0176 -0.01677,0 -0.01759,-9.46e-4 -0.01759,-0.0176 z m 3.335849,-0.123177 c -0.0017,-0.0028 -0.01038,-0.005 -0.01929,-0.005 -0.0089,0 -0.02137,-0.0036 -0.02771,-0.0081 -0.0076,-0.0053 -0.02144,-0.0079 -0.04015,-0.0076 -0.02592,3.59e-4 -0.03042,-0.0013 -0.04768,-0.01707 -0.01049,-0.0096 -0.02233,-0.01745 -0.02633,-0.01745 -0.004,0 -0.0073,-0.0047 -0.0073,-0.01052 0,-0.0062 -0.004,-0.01157 -0.0097,-0.01307 -0.0076,-0.002 -0.01107,-0.0103 -0.01596,-0.03765 -0.0062,-0.03476 -0.0059,-0.04861 0.0086,-0.446565 0.0026,-0.07066 0.0054,-0.111836 0.0119,-0.173454 0.0032,-0.03041 0.0078,-0.08132 0.01015,-0.113122 0.01061,-0.142371 0.01464,-0.188252 0.01823,-0.207808 0.0021,-0.01152 0.0043,-0.03566 0.0047,-0.05363 5.32e-4,-0.01797 0.0035,-0.05869 0.0069,-0.0905 0.0033,-0.0318 0.0069,-0.09062 0.008,-0.13072 0.0026,-0.093 0.0044,-0.118625 0.01386,-0.198591 0.0043,-0.03595 0.0065,-0.07696 0.0051,-0.09114 -0.0026,-0.02557 0.004,-0.112637 0.0137,-0.180349 0.01044,-0.07309 0.02662,-0.372711 0.02785,-0.515336 0.0021,-0.247944 0.0076,-0.376062 0.02736,-0.643539 0.02078,-0.280893 0.02434,-0.414914 0.01513,-0.568125 -0.0026,-0.04286 -0.0081,-0.149195 -0.01233,-0.236299 -0.0043,-0.0871 -0.0088,-0.170815 -0.01017,-0.186023 -0.0014,-0.01521 -0.0049,-0.247111 -0.0077,-0.515335 -0.0068,-0.64017 -0.01447,-0.863669 -0.03422,-0.99799 -0.0068,-0.04641 -0.0086,-0.09947 -0.0092,-0.26898 -3.61e-4,-0.116139 -0.0024,-0.271497 -0.0046,-0.34524 l -0.0039,-0.134078 0.01336,-0.01588 c 0.0073,-0.0087 0.01337,-0.01917 0.01337,-0.02319 0,-0.004 0.0035,-0.0086 0.0076,-0.01025 0.0043,-0.0017 0.01542,-0.01464 0.02492,-0.02894 0.01687,-0.02541 0.01823,-0.02625 0.05967,-0.03713 0.0521,-0.01367 0.07285,-0.01429 0.07714,-0.0024 0.0069,0.01937 0.01874,0.0252 0.04564,0.02262 0.02794,-0.0027 0.02838,-0.0022 0.03243,0.03395 0.001,0.0098 0.0047,0.01293 0.01648,0.01425 0.01643,0.0018 0.03268,0.01371 0.03268,0.02389 0,0.0035 0.005,0.0072 0.01127,0.008 0.01364,0.002 0.02228,0.01877 0.0297,0.05782 0.0066,0.03481 0.0024,0.336507 -0.0061,0.433986 -0.0056,0.06386 -0.0037,0.18509 0.0057,0.361992 0.0136,0.257703 0.0199,0.425875 0.01991,0.531674 l 3e-6,0.116893 h -0.01258 c -0.01206,0 -0.01258,0.0013 -0.01259,0.03142 -5.9e-5,0.06874 -0.0063,0.129462 -0.01329,0.129462 -0.0043,0 -0.0068,0.0061 -0.0068,0.01701 0,0.01278 0.0024,0.01766 0.01006,0.01964 0.0085,0.0022 0.01006,0.0069 0.01011,0.0295 4.8e-5,0.01478 0.0014,0.03535 0.0032,0.04572 0.0026,0.01561 0.0051,0.01885 0.01503,0.01885 0.01139,0 0.01192,0.0015 0.01192,0.03519 0,0.03184 -9.46e-4,0.03519 -0.01006,0.03519 -0.0093,0 -0.01006,0.0033 -0.01006,0.04274 0,0.04223 1.18e-4,0.04274 0.01258,0.04274 h 0.01256 v 0.09301 c 0,0.05866 -0.0019,0.09301 -0.005,0.09301 -0.0028,0 -0.005,0.0034 -0.005,0.0076 0,0.0042 0.0032,0.0076 0.0069,0.0076 0.0056,0 0.0076,0.02304 0.01046,0.119408 0.002,0.06567 0.0067,0.16918 0.01064,0.230015 0.01589,0.247937 0.01791,0.304982 0.01634,0.464439 l -0.0017,0.166538 0.01207,-4e-6 0.01208,-3e-6 -0.0034,0.06913 c -0.0019,0.03802 -0.0048,0.09006 -0.0065,0.115635 l -0.0032,0.04651 -0.0156,7.8e-4 c -0.01519,7.17e-4 -0.01524,7.82e-4 -0.0017,0.0028 0.01344,0.0021 0.01382,0.0031 0.01382,0.03444 0,0.03108 -5.31e-4,0.03235 -0.01247,0.03235 -0.01544,0 -0.01631,0.0036 -0.02005,0.08547 -0.0017,0.03457 -0.0043,0.08491 -0.0059,0.111865 -0.0029,0.04761 -0.0028,0.04902 0.0076,0.04902 0.01039,0 0.01071,0.002 0.01071,0.06787 v 0.06787 h -0.01258 -0.01258 v 0.08547 c 0,0.08212 3.6e-4,0.08547 0.01006,0.08547 0.0091,0 0.01006,0.0033 0.01006,0.03519 0,0.03418 -3.6e-4,0.03519 -0.01258,0.03519 -0.0092,0 -0.01256,0.0027 -0.01256,0.01005 0,0.0067 0.0033,0.01005 0.01006,0.01005 0.0093,0 0.01006,0.0033 0.01006,0.04525 0,0.04491 -1.18e-4,0.04525 -0.01256,0.04525 h -0.01257 l 4.9e-5,0.05405 c 4.6e-5,0.05392 -0.0071,0.159291 -0.02536,0.373302 -0.01418,0.166461 -0.04023,0.577323 -0.04008,0.632229 4.8e-5,0.01115 0.0024,0.01634 0.0076,0.01634 0.0054,0 0.0076,0.0056 0.0076,0.02011 0,0.01617 -0.0018,0.02012 -0.0093,0.02012 -0.0082,0 -0.0099,0.0075 -0.01533,0.06662 -0.009,0.09895 -0.02084,0.190972 -0.02598,0.202362 -0.0086,0.01904 -0.02367,0.158715 -0.02526,0.233786 -0.001,0.05171 0.0017,0.06927 0.01263,0.0765 0.0035,0.0024 0.0054,0.033 0.0056,0.0856 1.19e-4,0.05645 0.0023,0.08703 0.0069,0.09816 0.0072,0.01725 0.0054,0.05955 -0.0041,0.103325 -0.0072,0.03281 -0.0079,0.0336 -0.03332,0.0336 -0.01926,0 -0.02263,0.0017 -0.02526,0.01206 -0.0024,0.0098 -0.0073,0.0127 -0.02581,0.01547 -0.01652,0.0024 -0.02348,0.0061 -0.02531,0.01308 -0.002,0.008 -0.0071,0.0097 -0.02929,0.0097 -0.01471,0 -0.02817,-0.0023 -0.02988,-0.005 z m -0.04913,-0.395927 c -10e-4,-0.01037 -0.002,-0.0019 -0.002,0.01885 0,0.02074 9.46e-4,0.02922 0.002,0.01885 0.001,-0.01037 0.001,-0.02734 0,-0.03771 z m -1.78e-4,-0.07542 c -0.0013,-0.0048 -0.0024,-9.46e-4 -0.0024,0.0088 0,0.0097 0.001,0.01363 0.0024,0.0088 0.0013,-0.0048 0.0013,-0.01276 0,-0.0176 z m 0.0704,-0.130624 c -0.0013,-0.0049 -0.0024,-0.0021 -0.0024,0.0062 -1.19e-4,0.0083 9.47e-4,0.01229 0.0024,0.0089 0.0014,-0.0034 0.0014,-0.01018 1.79e-4,-0.01508 z m -1.78e-4,-0.05791 c -0.0014,-0.0035 -0.0025,-7.16e-4 -0.0025,0.0062 0,0.0069 10e-4,0.0097 0.0025,0.0062 0.0014,-0.0035 0.0014,-0.0091 0,-0.01258 z m 0.02033,-0.30166 c -0.0013,-0.0062 -0.0021,-0.001 -0.0021,0.01132 0,0.01244 9.46e-4,0.01753 0.0021,0.01132 0.0013,-0.0062 0.0013,-0.01641 0,-0.02262 z m 0.005,-0.04767 c -0.0013,-0.0049 -0.0024,-0.0021 -0.0024,0.0062 -1.19e-4,0.0083 9.46e-4,0.01229 0.0024,0.0089 0.0014,-0.0034 0.0014,-0.01019 1.79e-4,-0.01508 z m 0.03032,-1.143887 c -0.001,-0.009 -0.002,-0.0017 -0.002,0.01634 0,0.01797 9.46e-4,0.02533 0.002,0.01634 10e-4,-0.009 10e-4,-0.0237 0,-0.03268 z m 0.005,-0.07793 c -0.001,-0.01037 -0.002,-0.0019 -0.002,0.01886 0,0.02074 9.46e-4,0.02922 0.002,0.01885 0.001,-0.01037 0.001,-0.02734 0,-0.03771 z m 0.005,-0.08798 c -10e-4,-0.009 -0.002,-0.0017 -0.002,0.01634 0,0.01797 9.46e-4,0.02533 0.002,0.01634 0.001,-0.009 0.001,-0.02369 0,-0.03268 z M 75.336207,69.3881 v -0.0176 h 0.03269 0.03268 v 0.0176 0.01759 h -0.03268 -0.03269 z m 0.522877,-0.04667 c 0,-0.0159 0.0093,-0.05129 0.02727,-0.104323 0.05217,-0.153617 0.102984,-0.301948 0.128255,-0.374389 0.01399,-0.0401 0.02544,-0.07695 0.02546,-0.0819 1.5e-5,-0.005 0.0044,-0.01758 0.0097,-0.02806 0.01283,-0.02515 0.06266,-0.165411 0.101143,-0.284708 0.01695,-0.05254 0.03538,-0.10797 0.04097,-0.123178 0.0056,-0.01521 0.03558,-0.102384 0.06666,-0.193723 0.03107,-0.09134 0.05914,-0.171013 0.06238,-0.177057 0.0032,-0.0061 0.01015,-0.02407 0.01538,-0.04007 0.01117,-0.03422 0.07537,-0.218245 0.107485,-0.308111 0.01235,-0.03456 0.0353,-0.09905 0.051,-0.143289 0.03489,-0.09835 0.05011,-0.140432 0.08364,-0.231271 0.0143,-0.03871 0.03239,-0.08962 0.04024,-0.113122 0.0078,-0.0235 0.02134,-0.06197 0.02999,-0.08547 0.0087,-0.0235 0.02822,-0.0812 0.04349,-0.128205 0.01527,-0.04701 0.05385,-0.159622 0.08573,-0.250254 0.03188,-0.09063 0.05687,-0.165879 0.05553,-0.167217 -0.0065,-0.0065 -0.17856,-0.01326 -0.270481,-0.01067 -0.156678,0.0044 -0.523592,0.03319 -0.615888,0.0483 -0.02756,0.0045 -0.144211,0.01837 -0.319256,0.03794 -0.0996,0.01113 -0.317717,0.0327 -0.330687,0.0327 -0.0078,0 -0.0112,0.003 -0.0112,0.01002 0,0.0097 -0.0024,0.0099 -0.08421,0.0071 -0.04632,-0.0016 -0.113275,-0.0062 -0.148794,-0.01002 -0.08985,-0.0099 -0.121972,-0.0095 -0.126234,0.0017 -0.0055,0.01441 -0.01225,0.108289 -0.01515,0.21168 -0.0015,0.05348 -0.0048,0.122487 -0.0075,0.153343 -0.0062,0.07403 -0.0071,0.174725 -0.0024,0.294264 l 0.0038,0.09739 -0.02091,-0.002 c -0.01466,-0.0014 -0.02091,-5.9e-5 -0.02091,0.0044 0,0.0039 -0.0067,0.0065 -0.0176,0.0065 -0.01229,0 -0.0176,-0.0023 -0.0176,-0.0076 0,-0.0042 -0.0045,-0.0076 -0.01005,-0.0076 -0.0078,0 -0.01005,0.0033 -0.01005,0.01508 0,0.01317 -0.0017,0.01508 -0.01408,0.01508 -0.01909,0 -0.04059,-0.01057 -0.0442,-0.02174 -0.0027,-0.0084 -0.0037,-0.0085 -0.0117,-0.0013 -0.01535,0.01389 -0.06576,0.0076 -0.06576,-0.0081 0,-0.0032 -0.0062,-0.01369 -0.01365,-0.02352 -0.01834,-0.02405 -0.02423,-0.06719 -0.02342,-0.171596 6.44e-4,-0.08269 0.01342,-0.2431 0.02203,-0.276521 0.0024,-0.0097 0.0069,-0.04701 0.0098,-0.08296 0.0028,-0.03595 0.0075,-0.07893 0.01023,-0.09552 0.01009,-0.06104 0.0208,-0.198069 0.02091,-0.267723 5.9e-5,-0.03985 0.0021,-0.07165 0.0047,-0.07165 0.0025,0 0.0047,-0.0058 0.0047,-0.0129 0,-0.01993 0.0083,-0.03099 0.0282,-0.03755 0.01002,-0.0033 0.02248,-0.01027 0.02769,-0.01549 0.01113,-0.01113 0.05847,-0.01328 0.07642,-0.0035 0.0061,0.0033 0.02417,0.0076 0.0403,0.0095 0.01864,0.0023 0.03328,0.0073 0.04022,0.01373 0.0083,0.0077 0.03004,0.01333 0.09099,0.02341 0.07684,0.0127 0.08577,0.01314 0.221217,0.01061 0.179776,-0.0033 0.275419,-0.0079 0.282349,-0.01352 0.003,-0.0024 0.0245,-0.0043 0.04776,-0.0039 0.02327,2.52e-4 0.04825,-0.0019 0.05553,-0.0047 0.0073,-0.0028 0.03798,-0.0051 0.06821,-0.005 0.03723,6.5e-5 0.0607,-0.0023 0.07269,-0.0073 0.01228,-0.0051 0.03583,-0.0073 0.07682,-0.0073 0.04306,1.18e-4 0.06021,-0.0016 0.06314,-0.0063 0.0029,-0.0047 0.01367,-0.0058 0.03964,-0.0039 0.0255,0.0018 0.03958,4.93e-4 0.04954,-0.0047 0.02101,-0.01098 0.09213,-0.01668 0.277865,-0.02224 0.234934,-0.007 0.278343,-0.0093 0.283811,-0.01469 0.0057,-0.0056 0.07315,-0.0065 0.07317,-9.47e-4 1e-5,0.0021 0.04576,0.0045 0.101661,0.0054 0.105685,0.0017 0.296457,0.01284 0.335728,0.0196 0.019,0.0032 0.02291,0.0059 0.02438,0.01647 0.0022,0.01594 0.0087,0.01993 0.03217,0.02003 0.01037,4e-5 0.01885,0.0024 0.01885,0.005 0,0.0028 0.0034,0.005 0.0076,0.005 0.0058,0 0.0076,0.0062 0.0076,0.02514 0,0.01986 0.0017,0.02514 0.0082,0.02514 0.0068,0 0.0078,0.0043 0.0058,0.02465 l -0.0024,0.02465 0.02749,0.0035 0.02749,0.0035 -0.0024,0.03852 c -0.0014,0.02347 -0.0063,0.04737 -0.01254,0.06115 -0.0056,0.01244 -0.01822,0.04186 -0.02802,0.06536 -0.04735,0.113721 -0.06138,0.146326 -0.07893,0.183509 -0.01044,0.02212 -0.02032,0.04418 -0.02195,0.04902 -0.0017,0.0048 -0.007,0.0088 -0.01193,0.0089 -0.0099,6.6e-5 -0.02049,0.02008 -0.03593,0.06782 -0.0093,0.02888 -0.03971,0.10906 -0.05333,0.140774 -0.01695,0.03947 -0.0294,0.07157 -0.03779,0.09741 -0.005,0.01556 -0.02546,0.06787 -0.04537,0.116266 -0.03908,0.09502 -0.05789,0.145285 -0.06258,0.167297 -0.0017,0.0076 -0.0074,0.01842 -0.01291,0.02388 -0.0054,0.0054 -0.0099,0.01208 -0.0099,0.01471 0,0.0026 -0.0029,0.0066 -0.0065,0.0088 -0.0035,0.0022 -0.0096,0.0142 -0.01347,0.02665 -0.0039,0.01244 -0.0086,0.02489 -0.01058,0.02765 -0.002,0.0028 -0.0097,0.02313 -0.01709,0.04525 -0.0074,0.02212 -0.0165,0.047 -0.02018,0.0553 -0.01381,0.03111 -0.05405,0.138233 -0.07797,0.207572 -0.01363,0.03951 -0.02615,0.07404 -0.02781,0.07673 -0.0017,0.0027 -0.0071,0.01902 -0.01211,0.03627 -0.005,0.01725 -0.01628,0.05059 -0.02509,0.07409 -0.0088,0.0235 -0.02165,0.05971 -0.02855,0.08044 -0.0069,0.02074 -0.01841,0.05242 -0.02557,0.07039 -0.0072,0.01797 -0.02861,0.07906 -0.04767,0.135746 -0.01905,0.05669 -0.0366,0.107593 -0.03898,0.113123 -0.01149,0.02665 -0.02048,0.05693 -0.02048,0.06894 0,0.0073 -0.0034,0.01669 -0.0076,0.02084 -0.0042,0.0042 -0.0076,0.0099 -0.0076,0.0128 0,0.0028 -0.0043,0.01493 -0.0096,0.02676 -0.0053,0.01183 -0.01246,0.03168 -0.01595,0.04413 -0.0035,0.01244 -0.0082,0.02478 -0.01052,0.0274 -0.0023,0.0026 -0.0042,0.0145 -0.0042,0.02639 0,0.01509 -0.0021,0.02162 -0.007,0.02162 -0.004,0 -0.0084,0.0077 -0.01042,0.01833 -0.0019,0.01008 -0.0066,0.02324 -0.01059,0.02924 -0.0039,0.006 -0.0086,0.02207 -0.01045,0.03571 -0.0018,0.01365 -0.0062,0.02652 -0.0097,0.02861 -0.0035,0.002 -0.008,0.01114 -0.0099,0.02011 -0.002,0.009 -0.0087,0.02791 -0.01493,0.0421 -0.0062,0.01419 -0.01295,0.03511 -0.01487,0.04648 -0.002,0.01138 -0.0053,0.0218 -0.0075,0.02316 -0.0022,0.0013 -0.0092,0.01834 -0.01557,0.03773 -0.01115,0.03401 -0.01214,0.03526 -0.02782,0.03526 -0.0089,0 -0.01703,-0.0023 -0.01796,-0.005 -9.46e-4,-0.0028 -0.0065,0.01191 -0.01227,0.03268 l -0.01058,0.03776 h 0.01186 c 0.0102,0 0.01186,0.0024 0.01186,0.01759 0,0.01669 -8.67e-4,0.0176 -0.01723,0.0176 -0.01411,0 -0.01859,0.0028 -0.02475,0.01508 l -0.0075,0.01508 h 0.01721 c 0.01673,0 0.01721,6.07e-4 0.01721,0.02012 0,0.01309 -0.0023,0.02011 -0.0065,0.02011 -0.0035,0 -0.0092,0.01018 -0.01255,0.02262 -0.0033,0.01244 -0.0083,0.02262 -0.01109,0.02262 -0.0028,0 -0.005,0.0079 -0.005,0.0176 0,0.01228 -0.0023,0.0176 -0.0076,0.0176 -0.0044,0 -0.0076,0.0047 -0.0076,0.01131 -1.77e-4,0.02609 -0.0054,0.03394 -0.02273,0.03394 -0.0091,0 -0.01774,-0.0028 -0.01912,-0.0063 -0.0016,-0.0039 -0.0027,-0.0031 -0.0029,0.0021 -7.81e-4,0.01669 -0.01497,0.02424 -0.04559,0.02424 -0.01617,0 -0.03015,0.002 -0.03106,0.0043 -0.0026,0.0067 -0.08463,0.01258 -0.08463,0.0061 0,-0.0082 -0.02806,-0.0065 -0.03519,0.0021 -0.0035,0.0042 -0.0094,0.0076 -0.01318,0.0076 -0.0038,0 -0.0069,0.0034 -0.0069,0.0076 0,0.0053 -0.0054,0.0076 -0.0176,0.0076 h -0.0176 z m 0.09372,-0.06491 c -0.0061,-0.0061 -0.01475,0.0075 -0.0109,0.01697 0.0034,0.0084 0.0042,0.0082 0.009,-0.0022 0.0029,-0.0062 0.0038,-0.01288 0.0019,-0.01475 z m 0.182803,-0.0338 c 0,-0.0067 0.0028,-0.01329 0.0063,-0.01468 0.005,-0.002 0.0049,-0.0026 -1.19e-4,-0.0029 -0.0035,-2.34e-4 -0.0086,0.0054 -0.01131,0.0125 -0.0062,0.01605 -0.0062,0.01727 1.19e-4,0.01727 0.0028,0 0.005,-0.0054 0.005,-0.01215 z m 0.03519,-0.08086 c 0,-0.0042 -9.46e-4,-0.0076 -0.002,-0.0076 -0.001,0 -0.0032,0.0034 -0.0049,0.0076 -0.0016,0.0042 -6.51e-4,0.0076 0.002,0.0076 0.0027,0 0.0049,-0.0034 0.0049,-0.0076 z m 0.21842,-0.976623 c 0.0019,-0.0062 0.0014,-0.01131 -0.0011,-0.01131 -0.0048,0 -0.0165,0.03392 -0.01581,0.04583 4.16e-4,0.007 0.01044,-0.01348 0.01691,-0.03451 z m 0.02985,-0.08856 c 0.01502,-0.04508 0.0147,-0.04342 0.0085,-0.04342 -0.0025,0 -0.0062,0.0073 -0.008,0.01634 -0.0019,0.009 -0.0065,0.02603 -0.01046,0.03788 -0.0068,0.02059 -0.0092,0.03529 -0.0052,0.03082 10e-4,-0.0011 0.0078,-0.01989 0.01508,-0.04163 z m 0.53087,-1.458705 c 0,-0.0028 -0.0022,-0.0017 -0.0049,0.0024 -0.0027,0.0042 -0.0049,0.0098 -0.0049,0.01257 0,0.0028 0.0022,0.0017 0.0049,-0.0024 0.0027,-0.0042 0.0049,-0.0098 0.0049,-0.01257 z"
       id="path"
       inkscape:label="path">
      <title
         id="title321">path</title>
    </path>
    <text
       xml:space="preserve"
       transform="matrix(0.26458333,0,0,0.26458333,70.903562,63.565645)"
       id="text5046"
       style="font-style:normal;font-variant:normal;font-weight:300;font-stretch:normal;font-size:10.6667px;font-family:'Fira Code';-inkscape-font-specification:'Fira Code Light';white-space:pre;shape-inside:url(#rect5048);display:inline;fill:#ffffff;fill-opacity:1"><tspan
         x="38.275391"
         y="19.98766"
         id="tspan5133">ZedNot
</tspan><tspan
         x="38.275391"
         y="33.321036"
         id="tspan5135">Technology</tspan></text>
  </g>
</svg>
